<?xml version="1.0" encoding="UTF-8"?>
<!DOCTYPE svg PUBLIC "-//W3C//DTD SVG 1.1//EN" "http://www.w3.org/Graphics/SVG/1.1/DTD/svg11.dtd">
<!-- Creator: CorelDRAW -->
<svg xmlns="http://www.w3.org/2000/svg" xml:space="preserve" width="6.82666in" height="6.82666in" style="shape-rendering:geometricPrecision; text-rendering:geometricPrecision; image-rendering:optimizeQuality; fill-rule:evenodd; clip-rule:evenodd"
viewBox="0 0 6.82666 6.82666"
 xmlns:xlink="http://www.w3.org/1999/xlink">
 <defs>
  <style type="text/css">
   <![CDATA[
    .str0 {stroke:#212121;stroke-width:0.00333465;stroke-linecap:round;stroke-linejoin:round}
    .fil2 {fill:none}
    .fil1 {fill:#7E57C2}
    .fil0 {fill:#B39DDB}
    .fil5 {fill:#424242;fill-rule:nonzero}
    .fil7 {fill:#4E342E;fill-rule:nonzero}
    .fil3 {fill:#5D4037;fill-rule:nonzero}
    .fil4 {fill:#693F1E;fill-rule:nonzero}
    .fil6 {fill:#754B2B;fill-rule:nonzero}
    .fil8 {fill:#8A5832;fill-rule:nonzero}
    .fil9 {fill:#FF1E08;fill-rule:nonzero}
    .fil10 {fill:#FF7808;fill-rule:nonzero}
    .fil11 {fill:#FFC107;fill-rule:nonzero}
   ]]>
  </style>
   <clipPath id="id0">
    <path d="M3.41333 0c1.88513,0 3.41333,1.5282 3.41333,3.41333 0,1.88513 -1.5282,3.41333 -3.41333,3.41333 -1.88513,0 -3.41333,-1.5282 -3.41333,-3.41333 0,-1.88513 1.5282,-3.41333 3.41333,-3.41333z"/>
   </clipPath>
 </defs>
 <g id="Layer_x0020_1">
  <metadata id="CorelCorpID_0Corel-Layer"/>
  <path class="fil0" d="M3.41333 0c1.88513,0 3.41333,1.5282 3.41333,3.41333 0,1.88513 -1.5282,3.41333 -3.41333,3.41333 -1.88513,0 -3.41333,-1.5282 -3.41333,-3.41333 0,-1.88513 1.5282,-3.41333 3.41333,-3.41333z"/>
  <g style="clip-path:url(#id0)">
   <g id="_414979952">
    <g>
     <polygon id="_3549022401" class="fil1" points="3.44359,4.66217 7.22986,8.44844 7.22901,8.44797 3.44274,4.6617 "/>
     <polygon id="_354902048" class="fil1" points="3.4446,4.66272 7.23087,8.449 7.23007,8.44856 3.4438,4.66228 "/>
     <polygon id="_421618400" class="fil1" points="3.44591,4.66345 7.23218,8.44972 7.23187,8.44955 3.44561,4.66328 "/>
     <polygon id="_421619000" class="fil1" points="3.44761,4.66439 7.23387,8.45066 7.23323,8.4503 3.44696,4.66403 "/>
     <polygon id="_421618832" class="fil1" points="3.45059,4.66604 7.23686,8.45231 7.23637,8.45204 3.4501,4.66577 "/>
     <polygon id="_421618568" class="fil1" points="3.45158,4.66659 7.23785,8.45286 7.23741,8.45261 3.45114,4.66634 "/>
     <polygon id="_421618376" class="fil1" points="3.45454,4.66823 7.2408,8.4545 7.24051,8.45434 3.45424,4.66807 "/>
     <polygon id="_421618712" class="fil1" points="3.4563,4.66921 7.24256,8.45548 7.24178,8.45505 3.45551,4.66878 "/>
     <polygon id="_421618736" class="fil1" points="3.45746,4.66986 7.24373,8.45613 7.24359,8.45606 3.45732,4.66978 "/>
     <polygon id="_421618808" class="fil1" points="3.45935,4.67092 7.24562,8.45719 7.2447,8.45668 3.45843,4.67041 "/>
     <path id="_421618304" class="fil1" d="M7.22581 8.44621l0 0zm-3.78627 -3.78627l0 0z"/>
     <polygon id="_421619576" class="fil1" points="3.08175,2.53726 6.86802,6.32354 6.85259,6.36522 3.06632,2.57895 "/>
     <polygon id="_421619552" class="fil1" points="3.04583,2.89713 6.83209,6.6834 6.8272,6.68554 6.82222,6.68728 6.81719,6.6886 6.81213,6.68952 6.80706,6.69006 6.802,6.69021 6.79696,6.68998 6.79198,6.68939 6.78706,6.68843 6.78224,6.68711 6.77752,6.68545 6.77294,6.68344 6.76851,6.6811 6.76426,6.67844 6.76019,6.67545 6.75634,6.67215 2.97007,2.88588 2.97392,2.88918 2.97799,2.89217 2.98224,2.89483 2.98667,2.89717 2.99126,2.89918 2.99597,2.90084 3.0008,2.90215 3.00571,2.90311 3.0107,2.90371 3.01573,2.90394 3.0208,2.90379 3.02587,2.90325 3.03093,2.90233 3.03595,2.901 3.04093,2.89927 "/>
     <polygon id="_421619240" class="fil1" points="3.14004,1.6985 6.9263,5.48477 6.92898,5.48803 6.93146,5.49144 6.93372,5.49501 6.93576,5.49872 3.1495,1.71245 3.14745,1.70874 3.14519,1.70517 3.14272,1.70176 "/>
     <polygon id="_421619192" class="fil1" points="3.1495,1.71245 6.93576,5.49872 6.94874,5.52196 6.9607,5.54432 6.97163,5.56591 6.98155,5.58685 6.99046,5.60722 6.99836,5.62713 7.00527,5.64669 7.01117,5.666 7.01609,5.68517 7.02003,5.70429 7.02298,5.72347 7.02496,5.74282 7.02598,5.76243 7.02603,5.78242 7.02512,5.80287 7.02326,5.82391 7.02044,5.84563 7.01669,5.86813 7.012,5.89152 7.00637,5.91591 6.99982,5.94138 6.99235,5.96806 6.98396,5.99604 6.97465,6.02543 6.96444,6.05632 6.95333,6.08883 6.94132,6.12305 6.92843,6.15909 6.91464,6.19706 6.89997,6.23706 6.88443,6.27918 6.86802,6.32354 3.08175,2.53726 3.09816,2.49291 3.1137,2.45078 3.12837,2.41079 3.14216,2.37282 3.15506,2.33678 3.16706,2.30256 3.17818,2.27005 3.18839,2.23915 3.19769,2.20977 3.20608,2.18179 3.21356,2.15511 3.22011,2.12963 3.22573,2.10525 3.23042,2.08186 3.23418,2.05936 3.23699,2.03764 3.23885,2.0166 3.23976,1.99615 3.23971,1.97616 3.2387,1.95655 3.23672,1.9372 3.23376,1.91802 3.22983,1.8989 3.22491,1.87973 3.219,1.86042 3.21209,1.84086 3.20419,1.82095 3.19528,1.80057 3.18537,1.77964 3.17443,1.75805 3.16248,1.73569 "/>
     <polygon id="_421619168" class="fil1" points="3.06632,2.57895 6.85259,6.36522 6.84885,6.37606 6.84564,6.38682 6.84294,6.39752 6.84071,6.40812 6.83893,6.4186 6.83758,6.42896 6.83662,6.43916 6.83604,6.4492 6.8358,6.45905 6.83587,6.46869 6.83623,6.47812 6.83686,6.4873 6.83772,6.49623 6.8388,6.50488 6.84006,6.51324 6.84147,6.52128 6.84301,6.52899 6.84466,6.53636 6.84638,6.54335 6.84815,6.54996 6.84994,6.55617 6.85173,6.56196 6.85349,6.56731 6.85519,6.5722 6.85681,6.57661 6.85831,6.58054 6.85968,6.58394 6.86088,6.58683 6.86189,6.58916 6.86269,6.59092 6.86324,6.5921 6.86351,6.59268 3.07724,2.80641 3.07697,2.80583 3.07642,2.80465 3.07563,2.80289 3.07461,2.80056 3.07341,2.79767 3.07205,2.79426 3.07054,2.79034 3.06893,2.78593 3.06722,2.78104 3.06546,2.77569 3.06368,2.7699 3.06188,2.76369 3.06011,2.75708 3.05839,2.75009 3.05674,2.74272 3.0552,2.73501 3.05379,2.72696 3.05253,2.71861 3.05146,2.70996 3.05059,2.70103 3.04996,2.69185 3.0496,2.68242 3.04953,2.67278 3.04977,2.66293 3.05035,2.65289 3.05131,2.64269 3.05267,2.63233 3.05444,2.62185 3.05667,2.61125 3.05937,2.60055 3.06258,2.58978 "/>
     <polygon id="_421619720" class="fil1" points="3.30695,3.28342 7.09322,7.06969 7.09468,7.07384 7.09612,7.07801 7.09754,7.08219 7.09894,7.08638 7.10032,7.09058 7.10167,7.0948 7.10301,7.09904 7.10432,7.10328 7.10561,7.10754 7.10688,7.11181 7.10813,7.11609 7.10935,7.12038 7.11055,7.12469 7.11173,7.129 7.11288,7.13333 7.11401,7.13767 7.11512,7.14202 7.1162,7.14637 7.11726,7.15074 7.1183,7.15512 7.11931,7.1595 7.1203,7.1639 7.12126,7.16831 7.1222,7.17272 7.12311,7.17714 7.124,7.18157 7.12486,7.186 7.12569,7.19045 7.1265,7.1949 7.12729,7.19936 7.12805,7.20382 7.12878,7.2083 3.34251,3.42202 3.34178,3.41755 3.34102,3.41309 3.34024,3.40863 3.33943,3.40418 3.33859,3.39973 3.33773,3.3953 3.33684,3.39087 3.33593,3.38644 3.33499,3.38204 3.33403,3.37763 3.33304,3.37323 3.33203,3.36885 3.331,3.36447 3.32994,3.3601 3.32885,3.35574 3.32774,3.35139 3.32661,3.34706 3.32546,3.34273 3.32428,3.33841 3.32308,3.33411 3.32186,3.32981 3.32061,3.32554 3.31934,3.32126 3.31805,3.31701 3.31674,3.31276 3.31541,3.30853 3.31405,3.30431 3.31267,3.30011 3.31128,3.29591 3.30985,3.29174 3.30841,3.28757 "/>
     <polygon id="_421619288" class="fil1" points="3.13669,2.80465 6.92295,6.59092 6.925,6.59734 6.92513,6.60392 6.92354,6.6106 6.92041,6.61732 6.91593,6.62404 6.9103,6.63072 6.9037,6.63728 6.89633,6.6437 6.88836,6.64991 6.88,6.65586 6.87143,6.66151 6.86285,6.6668 6.85443,6.67169 6.84637,6.67612 6.83886,6.68004 6.83209,6.6834 3.04583,2.89713 3.05259,2.89377 3.0601,2.88985 3.06816,2.88542 3.07658,2.88053 3.08517,2.87524 3.09374,2.86959 3.10209,2.86363 3.11006,2.85743 3.11743,2.85101 3.12403,2.84444 3.12967,2.83777 3.13414,2.83105 3.13727,2.82433 3.13886,2.81765 3.13873,2.81107 "/>
     <polygon id="_421619648" class="fil1" points="4.14482,3.13163 7.93109,6.9179 7.93971,6.94603 7.9475,6.97382 7.95447,7.00128 7.96063,7.02839 7.96601,7.05517 7.97061,7.08159 7.97444,7.10767 7.97752,7.13341 7.97987,7.15879 7.98148,7.18381 7.98239,7.20848 7.98259,7.2328 7.98211,7.25674 7.98096,7.28033 7.97915,7.30355 7.97669,7.32641 7.9736,7.34889 7.96989,7.371 7.96557,7.39274 7.96065,7.4141 7.95516,7.43508 7.9491,7.45568 7.94248,7.47589 7.93533,7.49572 7.92764,7.51517 7.91944,7.53421 7.91074,7.55287 7.90155,7.57113 7.89188,7.589 7.88175,7.60646 7.87117,7.62352 7.86016,7.64018 4.07389,3.85391 4.08491,3.83725 4.09548,3.82019 4.10561,3.80272 4.11528,3.78486 4.12447,3.7666 4.13317,3.74794 4.14137,3.72889 4.14906,3.70945 4.15622,3.68962 4.16283,3.66941 4.16889,3.64881 4.17439,3.62783 4.1793,3.60647 4.18362,3.58473 4.18733,3.56262 4.19043,3.54013 4.19288,3.51728 4.1947,3.49406 4.19585,3.47047 4.19633,3.44652 4.19612,3.42221 4.19522,3.39754 4.1936,3.37252 4.19126,3.34713 4.18818,3.3214 4.18434,3.29532 4.17974,3.26889 4.17437,3.24212 4.1682,3.215 4.16123,3.18755 4.15344,3.15976 "/>
     <polygon id="_421619264" class="fil1" points="2.97007,2.88588 6.75634,6.67215 6.7264,6.64836 6.69904,6.62463 6.67417,6.60093 2.8879,2.81466 2.91277,2.83835 2.94013,2.86209 "/>
     <polygon id="_421619816" class="fil1" points="3.1275,3.00735 6.91377,6.79362 6.91425,6.79435 6.91569,6.79648 6.918,6.79992 6.92113,6.80457 6.92502,6.81035 6.92961,6.81717 6.93483,6.82494 6.94064,6.83358 6.94696,6.84299 6.95372,6.85308 6.96089,6.86378 6.96838,6.87498 6.97614,6.88661 6.98411,6.89856 6.99222,6.91076 7.00043,6.92312 7.00865,6.93554 7.01684,6.94794 7.02493,6.96023 7.03286,6.97232 7.04056,6.98413 7.04799,6.99556 7.05507,7.00652 7.06175,7.01693 7.06796,7.0267 7.07364,7.03574 7.07873,7.04396 7.08318,7.05128 7.08691,7.05759 7.08987,7.06283 7.09199,7.06689 7.09322,7.06969 3.30695,3.28342 3.30572,3.28062 3.3036,3.27656 3.30064,3.27132 3.29691,3.265 3.29246,3.25769 3.28737,3.24947 3.28169,3.24043 3.27548,3.23066 3.2688,3.22025 3.26172,3.20928 3.2543,3.19785 3.24659,3.18605 3.23866,3.17396 3.23057,3.16167 3.22238,3.14927 3.21416,3.13685 3.20596,3.12449 3.19784,3.11229 3.18987,3.10033 3.18211,3.08871 3.17462,3.07751 3.16746,3.06681 3.16069,3.05672 3.15437,3.04731 3.14857,3.03867 3.14334,3.0309 3.13875,3.02408 3.13486,3.0183 3.13173,3.01365 3.12942,3.01021 3.12798,3.00808 "/>
     <polygon id="_421619840" class="fil1" points="4.2983,3.75088 8.08457,7.53715 8.07521,7.54524 8.06592,7.55327 8.05668,7.56123 8.04749,7.56913 8.03835,7.57697 8.02925,7.58476 8.02019,7.59249 8.01115,7.60017 8.00215,7.6078 7.99316,7.61538 7.98419,7.62292 7.97523,7.63041 7.96628,7.63787 7.95733,7.64529 7.94838,7.65267 7.93942,7.66002 7.93044,7.66735 7.92144,7.67465 7.91243,7.68192 7.90338,7.68917 7.8943,7.6964 7.88519,7.70361 7.87602,7.71081 7.86681,7.71799 7.85755,7.72517 7.84823,7.73234 7.83884,7.7395 7.82939,7.74667 7.81987,7.75383 7.81026,7.76099 7.80057,7.76816 7.7908,7.77534 4.00453,3.98907 4.01431,3.98189 4.02399,3.97472 4.0336,3.96756 4.04312,3.96039 4.05257,3.95323 4.06196,3.94607 4.07128,3.9389 4.08055,3.93172 4.08976,3.92454 4.09892,3.91734 4.10804,3.91013 4.11711,3.90289 4.12616,3.89565 4.13518,3.88837 4.14417,3.88108 4.15315,3.87375 4.16211,3.8664 4.17106,3.85902 4.18002,3.85159 4.18896,3.84414 4.19793,3.83665 4.20689,3.82911 4.21588,3.82152 4.22489,3.81389 4.23392,3.80622 4.24298,3.79849 4.25208,3.7907 4.26122,3.78286 4.27041,3.77496 4.27965,3.767 4.28894,3.75897 "/>
     <polygon id="_421620392" class="fil1" points="4.77811,4.13983 8.56438,7.9261 8.54182,7.93651 8.51948,7.94681 8.49736,7.95702 8.47544,7.96711 8.45371,7.9771 8.43216,7.987 8.41077,7.9968 8.38954,8.0065 8.36846,8.01611 8.3475,8.02563 8.32667,8.03506 8.30593,8.04441 8.2853,8.05367 8.26475,8.06285 8.24426,8.07195 8.22384,8.08097 8.20347,8.08992 8.18313,8.0988 8.16281,8.1076 8.14251,8.11633 8.1222,8.125 8.10189,8.1336 8.08154,8.14215 8.06117,8.15063 8.04074,8.15905 8.02025,8.16742 7.99969,8.17573 7.97905,8.18399 7.95831,8.1922 7.93746,8.20037 7.91649,8.20849 7.89539,8.21657 4.10913,4.4303 4.13022,4.42222 4.15119,4.4141 4.17204,4.40593 4.19278,4.39772 4.21343,4.38946 4.23398,4.38115 4.25447,4.37278 4.2749,4.36435 4.29528,4.35587 4.31562,4.34733 4.33594,4.33873 4.35624,4.33006 4.37655,4.32133 4.39686,4.31252 4.4172,4.30365 4.43757,4.2947 4.458,4.28568 4.47848,4.27658 4.49903,4.2674 4.51967,4.25814 4.5404,4.24879 4.56123,4.23936 4.58219,4.22984 4.60328,4.22023 4.6245,4.21052 4.64589,4.20073 4.66744,4.19083 4.68917,4.18084 4.71109,4.17074 4.73321,4.16054 4.75555,4.15024 "/>
     <polygon id="_421620032" class="fil1" points="5.20713,4.94629 8.9934,8.73256 8.98949,8.73538 5.20322,4.94911 "/>
     <polygon id="_421620464" class="fil1" points="5.20322,4.94911 8.98949,8.73538 8.98539,8.73833 5.19913,4.95206 "/>
     <polygon id="_421620560" class="fil1" points="5.19913,4.95206 8.98539,8.73833 8.98112,8.74142 5.19485,4.95515 "/>
     <polygon id="_421620512" class="fil1" points="5.19485,4.95515 8.98112,8.74142 8.97668,8.74462 5.19041,4.95835 "/>
     <polygon id="_421620320" class="fil1" points="5.19041,4.95835 8.97668,8.74462 8.97654,8.74472 5.19027,4.95845 "/>
     <polygon id="_421620008" class="fil1" points="5.19027,4.95845 8.97654,8.74472 8.97186,8.7481 8.96703,8.75159 8.96205,8.75519 8.95694,8.7589 8.95169,8.7627 8.94633,8.76659 8.94085,8.77056 8.93527,8.77461 8.9296,8.77873 8.92385,8.78292 8.91802,8.78716 8.91213,8.79146 8.90618,8.7958 8.90018,8.80019 8.89414,8.8046 8.88807,8.80904 8.88198,8.8135 8.87588,8.81798 8.86978,8.82247 8.86368,8.82696 8.8576,8.83144 8.85154,8.83592 8.84551,8.84038 8.83953,8.84481 8.83359,8.84922 8.82772,8.85359 8.82191,8.85792 8.81619,8.8622 8.81054,8.86643 8.805,8.8706 8.79956,8.8747 8.79423,8.87873 5.00796,5.09246 5.01329,5.08843 5.01873,5.08433 5.02428,5.08016 5.02992,5.07593 5.03565,5.07165 5.04145,5.06732 5.04733,5.06295 5.05326,5.05854 5.05924,5.05411 5.06527,5.04965 5.07133,5.04517 5.07741,5.04069 5.08351,5.0362 5.08961,5.03171 5.09572,5.02723 5.1018,5.02277 5.10787,5.01833 5.11391,5.01391 5.11991,5.00953 5.12586,5.00519 5.13176,5.00089 5.13758,4.99665 5.14333,4.99246 5.149,4.98834 5.15458,4.98429 5.16006,4.98031 5.16542,4.97643 5.17067,4.97263 5.17578,4.96892 5.18076,4.96532 5.18559,4.96183 "/>
     <polygon id="_421620344" class="fil1" points="5.00796,5.09246 8.79423,8.87873 8.79389,8.87899 5.00762,5.09272 "/>
     <polygon id="_421619888" class="fil1" points="5.00762,5.09272 8.79389,8.87899 8.79354,8.87925 5.00728,5.09298 "/>
     <polygon id="_421619960" class="fil1" points="5.00728,5.09298 8.79354,8.87925 8.7932,8.87951 5.00693,5.09324 "/>
     <polygon id="_421620872" class="fil1" points="5.00693,5.09324 8.7932,8.87951 8.79286,8.87977 5.00659,5.0935 "/>
     <polygon id="_421620632" class="fil1" points="5.00659,5.0935 8.79286,8.87977 8.79252,8.88003 5.00625,5.09376 "/>
     <polygon id="_421620896" class="fil1" points="5.00625,5.09376 8.79252,8.88003 8.79183,8.88054 5.00557,5.09427 "/>
     <polygon id="_421620824" class="fil1" points="5.00557,5.09427 8.79183,8.88054 8.79166,8.88068 5.00539,5.09441 "/>
     <polygon id="_421621304" class="fil1" points="5.00539,5.09441 8.79166,8.88068 8.79149,8.8808 5.00522,5.09453 "/>
     <polygon id="_421620752" class="fil1" points="5.00522,5.09453 8.79149,8.8808 8.79115,8.88106 5.00489,5.09479 "/>
     <polygon id="_421620920" class="fil1" points="5.00489,5.09479 8.79115,8.88106 8.79048,8.88157 5.00421,5.0953 "/>
     <polygon id="_421620776" class="fil1" points="5.00421,5.0953 8.79048,8.88157 8.79014,8.88183 5.00387,5.09556 "/>
     <polygon id="_421621088" class="fil1" points="5.00387,5.09556 8.79014,8.88183 8.7898,8.88209 5.00354,5.09581 "/>
     <polygon id="_421621256" class="fil1" points="5.00354,5.09581 8.7898,8.88209 8.78946,8.88234 5.0032,5.09607 "/>
     <polygon id="_421621664" class="fil1" points="5.0032,5.09607 8.78946,8.88234 8.78913,8.8826 5.00286,5.09633 "/>
     <polygon id="_421622024" class="fil1" points="5.00286,5.09633 8.78913,8.8826 8.7888,8.88285 5.00253,5.09658 "/>
     <polygon id="_421621592" class="fil1" points="5.00253,5.09658 8.7888,8.88285 8.78846,8.88311 5.00219,5.09683 "/>
     <polygon id="_421621808" class="fil1" points="5.00219,5.09683 8.78846,8.88311 8.78813,8.88336 5.00186,5.09709 "/>
     <polygon id="_421621976" class="fil1" points="5.00186,5.09709 8.78813,8.88336 8.78779,8.88362 5.00152,5.09735 "/>
     <polygon id="_421621472" class="fil1" points="5.00152,5.09735 8.78779,8.88362 8.78746,8.88387 5.00119,5.0976 "/>
     <polygon id="_421621928" class="fil1" points="5.00119,5.0976 8.78746,8.88387 8.78713,8.88412 5.00086,5.09785 "/>
     <polygon id="_421621688" class="fil1" points="5.00086,5.09785 8.78713,8.88412 8.78679,8.88438 5.00052,5.09811 "/>
     <polygon id="_421621832" class="fil1" points="5.00052,5.09811 8.78679,8.88438 8.78659,8.88453 5.00033,5.09826 "/>
     <polygon id="_421622096" class="fil1" points="5.00033,5.09826 8.78659,8.88453 8.78646,8.88463 5.00019,5.09836 "/>
     <polygon id="_421621424" class="fil1" points="5.00019,5.09836 8.78646,8.88463 8.78613,8.88488 4.99986,5.09861 "/>
     <polygon id="_421622672" class="fil1" points="4.99986,5.09861 8.78613,8.88488 8.7858,8.88513 4.99953,5.09886 "/>
     <polygon id="_421622696" class="fil1" points="4.99953,5.09886 8.7858,8.88513 8.78547,8.88539 4.9992,5.09911 "/>
     <polygon id="_421622192" class="fil1" points="4.9992,5.09911 8.78547,8.88539 8.78514,8.88564 4.99887,5.09937 "/>
     <polygon id="_421622744" class="fil1" points="4.99887,5.09937 8.78514,8.88564 8.78481,8.88589 4.99854,5.09961 "/>
     <polygon id="_421622888" class="fil1" points="4.99854,5.09961 8.78481,8.88589 8.78448,8.88614 4.99822,5.09987 "/>
     <polygon id="_421622504" class="fil1" points="4.99822,5.09987 8.78448,8.88614 8.78416,8.88639 4.99789,5.10011 "/>
     <polygon id="_421622288" class="fil1" points="4.99789,5.10011 8.78416,8.88639 8.78383,8.88664 4.99756,5.10037 "/>
     <polygon id="_421622360" class="fil1" points="4.99756,5.10037 8.78383,8.88664 8.7835,8.88689 4.99724,5.10061 "/>
     <polygon id="_421622456" class="fil1" points="4.99724,5.10061 8.7835,8.88689 8.78318,8.88713 4.99691,5.10086 "/>
     <polygon id="_421622576" class="fil1" points="4.99691,5.10086 8.78318,8.88713 8.78285,8.88738 4.99658,5.10111 "/>
     <polygon id="_421623056" class="fil1" points="4.99658,5.10111 8.78285,8.88738 8.78253,8.88763 4.99626,5.10136 "/>
     <polygon id="_421623632" class="fil1" points="4.99626,5.10136 8.78253,8.88763 8.7822,8.88788 4.99594,5.10161 "/>
     <polygon id="_421623296" class="fil1" points="4.99594,5.10161 8.7822,8.88788 8.78188,8.88813 4.99561,5.10185 "/>
     <polygon id="_421623368" class="fil1" points="4.99561,5.10185 8.78188,8.88813 8.78166,8.8883 4.99539,5.10202 "/>
     <polygon id="_421623512" class="fil1" points="4.99539,5.10202 8.78166,8.8883 8.78156,8.88837 4.99529,5.1021 "/>
     <polygon id="_421623656" class="fil1" points="4.99529,5.1021 8.78156,8.88837 8.78124,8.88862 4.99497,5.10235 "/>
     <polygon id="_421623392" class="fil1" points="4.99497,5.10235 8.78124,8.88862 8.78091,8.88887 4.99465,5.10259 "/>
     <polygon id="_421623536" class="fil1" points="4.99465,5.10259 8.78091,8.88887 8.78059,8.88911 4.99433,5.10284 "/>
     <polygon id="_421623248" class="fil1" points="4.99433,5.10284 8.78059,8.88911 8.78027,8.88935 4.994,5.10308 "/>
     <polygon id="_421623200" class="fil1" points="4.994,5.10308 8.78027,8.88935 8.77995,8.8896 4.99369,5.10333 "/>
     <polygon id="_421623464" class="fil1" points="4.99369,5.10333 8.77995,8.8896 8.77963,8.88985 4.99337,5.10357 "/>
     <polygon id="_421623800" class="fil1" points="4.99337,5.10357 8.77963,8.88985 8.77931,8.89009 4.99305,5.10381 "/>
     <polygon id="_421623680" class="fil1" points="4.99305,5.10381 8.77931,8.89009 8.779,8.89033 4.99273,5.10406 "/>
     <polygon id="_421623728" class="fil1" points="4.99273,5.10406 8.779,8.89033 8.77868,8.89057 4.99241,5.1043 "/>
     <polygon id="_421623848" class="fil1" points="4.99241,5.1043 8.77868,8.89057 8.77837,8.89082 4.9921,5.10455 "/>
     <polygon id="_421591832" class="fil1" points="4.9921,5.10455 8.77837,8.89082 8.77805,8.89106 4.99178,5.10479 "/>
     <polygon id="_421591760" class="fil1" points="4.99178,5.10479 8.77805,8.89106 8.77774,8.8913 4.99147,5.10503 "/>
     <polygon id="_421591856" class="fil1" points="4.99147,5.10503 8.77774,8.8913 8.77742,8.89154 4.99115,5.10527 "/>
     <polygon id="_421591616" class="fil1" points="4.99115,5.10527 8.77742,8.89154 8.77711,8.89178 4.99084,5.10551 "/>
     <polygon id="_421591544" class="fil1" points="4.99084,5.10551 8.77711,8.89178 8.77686,8.89197 4.99059,5.1057 "/>
     <polygon id="_421591736" class="fil1" points="4.99059,5.1057 8.77686,8.89197 8.77679,8.89202 4.99052,5.10575 "/>
     <polygon id="_421591664" class="fil1" points="4.99052,5.10575 8.77679,8.89202 8.77648,8.89226 4.99021,5.10599 "/>
     <polygon id="_421591640" class="fil1" points="4.99021,5.10599 8.77648,8.89226 8.77617,8.8925 4.9899,5.10623 "/>
     <polygon id="_421591688" class="fil1" points="4.9899,5.10623 8.77617,8.8925 8.77586,8.89274 4.98959,5.10647 "/>
     <polygon id="_421592096" class="fil1" points="4.98959,5.10647 8.77586,8.89274 8.77555,8.89298 4.98928,5.10671 "/>
     <polygon id="_421592192" class="fil1" points="4.98928,5.10671 8.77555,8.89298 8.77524,8.89322 4.98897,5.10695 "/>
     <polygon id="_421592432" class="fil1" points="4.98897,5.10695 8.77524,8.89322 8.77493,8.89346 4.98866,5.10719 "/>
     <polygon id="_421592336" class="fil1" points="4.98866,5.10719 8.77493,8.89346 8.77462,8.8937 4.98835,5.10743 "/>
     <polygon id="_421592792" class="fil1" points="4.98835,5.10743 8.77462,8.8937 8.77103,8.89646 8.76753,8.89917 8.76414,8.9018 8.76085,8.90437 8.75767,8.90686 8.75461,8.90928 8.75167,8.91161 8.74885,8.91387 8.74615,8.91604 8.74359,8.91813 8.74116,8.92013 8.73887,8.92203 8.73672,8.92384 8.73473,8.92555 8.73289,8.92716 8.7312,8.92867 4.94493,5.1424 4.94662,5.14089 4.94846,5.13928 4.95046,5.13757 4.9526,5.13576 4.95489,5.13385 4.95732,5.13186 4.95988,5.12977 4.96258,5.1276 4.9654,5.12534 4.96834,5.123 4.97141,5.12059 4.97458,5.11809 4.97787,5.11553 4.98126,5.11289 4.98476,5.11019 "/>
     <polygon id="_421592408" class="fil1" points="3.43648,4.65826 7.22275,8.44453 7.2226,8.44445 3.43633,4.65818 "/>
     <polygon id="_421592576" class="fil1" points="3.46037,4.67149 7.24663,8.45776 7.24567,8.45722 3.4594,4.67095 "/>
     <polygon id="_421592504" class="fil1" points="3.4594,4.67095 7.24567,8.45722 7.24562,8.45719 3.45935,4.67092 "/>
     <path id="_421592672" class="fil1" d="M7.24631 8.45815l0 0zm-3.78627 -3.78627l0 0z"/>
     <polygon id="_421592720" class="fil1" points="3.45843,4.67041 7.2447,8.45668 7.24461,8.45663 3.45834,4.67035 "/>
     <polygon id="_421592840" class="fil1" points="3.45834,4.67035 7.24461,8.45663 7.24373,8.45613 3.45746,4.66986 "/>
     <path id="_421593416" class="fil1" d="M7.24605 8.45847l0 0zm-3.78627 -3.78627l0 0z"/>
     <polygon id="_421593512" class="fil1" points="3.45732,4.66978 7.24359,8.45606 7.24276,8.45559 3.45649,4.66932 "/>
     <polygon id="_421593056" class="fil1" points="3.45649,4.66932 7.24276,8.45559 7.24256,8.45548 3.4563,4.66921 "/>
     <path id="_421593632" class="fil1" d="M7.24575 8.45885l0 0zm-3.78627 -3.78627l0 0z"/>
     <polygon id="_421593488" class="fil1" points="3.45551,4.66878 7.24178,8.45505 7.24154,8.45491 3.45527,4.66864 "/>
     <polygon id="_421593224" class="fil1" points="3.45527,4.66864 7.24154,8.45491 7.2408,8.4545 3.45454,4.66823 "/>
     <path id="_421593032" class="fil1" d="M7.24547 8.4592l0 0zm-3.78627 -3.78627l0 0z"/>
     <polygon id="_421593320" class="fil1" points="3.45424,4.66807 7.24051,8.45434 7.23982,8.45396 3.45355,4.66769 "/>
     <polygon id="_421593344" class="fil1" points="3.45355,4.66769 7.23982,8.45396 7.23948,8.45377 3.45321,4.6675 "/>
     <polygon id="_421593392" class="fil1" points="3.45321,4.6675 7.23948,8.45377 7.23883,8.45341 3.45257,4.66714 "/>
     <polygon id="_421593152" class="fil1" points="3.45257,4.66714 7.23883,8.45341 7.23844,8.45319 3.45218,4.66692 "/>
     <polygon id="_421594232" class="fil1" points="3.45218,4.66692 7.23844,8.45319 7.23785,8.45286 3.45158,4.66659 "/>
     <path id="_421594208" class="fil1" d="M7.24489 8.45995l0 0zm-3.78627 -3.78627l0 0z"/>
     <polygon id="_421593896" class="fil1" points="3.45114,4.66634 7.23741,8.45261 7.23686,8.45231 3.45059,4.66604 "/>
     <path id="_421593848" class="fil1" d="M7.24463 8.4603l0 0zm-3.78627 -3.78627l0 0z"/>
     <polygon id="_421593824" class="fil1" points="3.4501,4.66577 7.23637,8.45204 7.23587,8.45176 3.4496,4.66549 "/>
     <polygon id="_421594376" class="fil1" points="3.4496,4.66549 7.23587,8.45176 7.23532,8.45146 3.44906,4.66519 "/>
     <polygon id="_421593944" class="fil1" points="3.44906,4.66519 7.23532,8.45146 7.23487,8.45121 3.44861,4.66494 "/>
     <polygon id="_421594304" class="fil1" points="3.44861,4.66494 7.23487,8.45121 7.23428,8.45088 3.44801,4.66461 "/>
     <polygon id="_421593920" class="fil1" points="3.44801,4.66461 7.23428,8.45088 7.23387,8.45066 3.44761,4.66439 "/>
     <path id="_421594472" class="fil1" d="M7.24404 8.46107l0 0zm-3.78627 -3.78627l0 0z"/>
     <polygon id="_421594496" class="fil1" points="3.44696,4.66403 7.23323,8.4503 7.23287,8.45011 3.44661,4.66383 "/>
     <polygon id="_421595048" class="fil1" points="3.44661,4.66383 7.23287,8.45011 7.23218,8.44972 3.44591,4.66345 "/>
     <path id="_421594688" class="fil1" d="M7.24381 8.46139l0 0zm-3.78627 -3.78627l0 0z"/>
     <polygon id="_421595120" class="fil1" points="3.44561,4.66328 7.23187,8.44955 7.23113,8.44914 3.44486,4.66287 "/>
     <polygon id="_421595240" class="fil1" points="3.44486,4.66287 7.23113,8.44914 7.23087,8.449 3.4446,4.66272 "/>
     <path id="_421595168" class="fil1" d="M7.24352 8.46178l0 0zm-3.78627 -3.78627l0 0z"/>
     <polygon id="_421594928" class="fil1" points="3.4438,4.66228 7.23007,8.44856 7.22986,8.44844 3.44359,4.66217 "/>
     <path id="_421594664" class="fil1" d="M7.24325 8.46216l0 0zm-3.78627 -3.78627l0 0z"/>
     <polygon id="_421594784" class="fil1" points="3.44274,4.6617 7.22901,8.44797 7.22885,8.44789 3.44258,4.66161 "/>
     <polygon id="_421594952" class="fil1" points="3.44258,4.66161 7.22885,8.44789 7.22795,8.44739 3.44168,4.66111 "/>
     <polygon id="_421595024" class="fil1" points="3.44168,4.66111 7.22795,8.44739 7.22784,8.44733 3.44157,4.66106 "/>
     <polygon id="_421595696" class="fil1" points="3.44157,4.66106 7.22784,8.44733 7.22766,8.44723 3.44139,4.66096 "/>
     <polygon id="_421595288" class="fil1" points="3.44139,4.66096 7.22766,8.44723 7.22581,8.44621 3.43954,4.65994 "/>
     <polygon id="_421595384" class="fil1" points="3.43954,4.65994 7.22581,8.44621 7.22479,8.44565 3.43852,4.65938 "/>
     <polygon id="_421595504" class="fil1" points="3.43852,4.65938 7.22479,8.44565 7.22475,8.44563 3.43848,4.65935 "/>
     <polygon id="_421595456" class="fil1" points="3.43848,4.65935 7.22475,8.44563 7.22377,8.44509 3.4375,4.65882 "/>
     <polygon id="_421595336" class="fil1" points="3.4375,4.65882 7.22377,8.44509 7.22368,8.44504 3.43741,4.65877 "/>
     <polygon id="_421595264" class="fil1" points="3.43741,4.65877 7.22368,8.44504 7.22275,8.44453 3.43648,4.65826 "/>
     <polygon id="_421595768" class="fil1" points="3.43633,4.65818 7.2226,8.44445 7.22172,8.44397 3.43545,4.6577 "/>
     <polygon id="_421595816" class="fil1" points="3.43545,4.6577 7.22172,8.44397 7.22152,8.44386 3.43526,4.65759 "/>
     <polygon id="_421596728" class="fil1" points="3.43526,4.65759 7.22152,8.44386 7.22069,8.44341 3.43443,4.65713 "/>
     <polygon id="_421596560" class="fil1" points="3.43443,4.65713 7.22069,8.44341 7.22044,8.44327 3.43418,4.657 "/>
     <polygon id="_421596584" class="fil1" points="3.43418,4.657 7.22044,8.44327 7.21967,8.44284 3.4334,4.65657 "/>
     <polygon id="_421596272" class="fil1" points="3.4334,4.65657 7.21967,8.44284 7.21937,8.44268 3.4331,4.65641 "/>
     <polygon id="_421596776" class="fil1" points="3.4331,4.65641 7.21937,8.44268 7.21863,8.44228 3.43237,4.656 "/>
     <polygon id="_421596080" class="fil1" points="3.43237,4.656 7.21863,8.44228 7.21828,8.44208 3.43202,4.65581 "/>
     <polygon id="_421596416" class="fil1" points="3.43202,4.65581 7.21828,8.44208 7.2176,8.44171 3.43133,4.65544 "/>
     <polygon id="_421596440" class="fil1" points="3.43133,4.65544 7.2176,8.44171 7.2172,8.44149 3.43093,4.65522 "/>
     <polygon id="_421596488" class="fil1" points="3.43093,4.65522 7.2172,8.44149 7.21656,8.44115 3.4303,4.65487 "/>
     <polygon id="_421596680" class="fil1" points="3.4303,4.65487 7.21656,8.44115 7.21611,8.4409 3.42984,4.65463 "/>
     <polygon id="_421596104" class="fil1" points="3.42984,4.65463 7.21611,8.4409 7.21553,8.44058 3.42926,4.65431 "/>
     <polygon id="_421597160" class="fil1" points="3.42926,4.65431 7.21553,8.44058 7.21502,8.4403 3.42875,4.65403 "/>
     <polygon id="_421597544" class="fil1" points="3.42875,4.65403 7.21502,8.4403 7.21449,8.44001 3.42822,4.65374 "/>
     <polygon id="_421597424" class="fil1" points="3.42822,4.65374 7.21449,8.44001 7.21393,8.4397 3.42766,4.65343 "/>
     <polygon id="_421597016" class="fil1" points="3.42766,4.65343 7.21393,8.4397 7.21345,8.43944 3.42718,4.65317 "/>
     <polygon id="_421597328" class="fil1" points="3.42718,4.65317 7.21345,8.43944 7.21283,8.43911 3.42657,4.65284 "/>
     <polygon id="_421596968" class="fil1" points="3.42657,4.65284 7.21283,8.43911 7.21241,8.43887 3.42614,4.6526 "/>
     <polygon id="_421597352" class="fil1" points="3.42614,4.6526 7.21241,8.43887 7.21174,8.43851 3.42547,4.65224 "/>
     <polygon id="_421597064" class="fil1" points="3.42547,4.65224 7.21174,8.43851 7.21136,8.4383 3.42509,4.65203 "/>
     <polygon id="_421596824" class="fil1" points="3.42509,4.65203 7.21136,8.4383 7.21064,8.43791 3.42437,4.65164 "/>
     <polygon id="_421597088" class="fil1" points="3.42437,4.65164 7.21064,8.43791 7.21031,8.43774 3.42405,4.65146 "/>
     <polygon id="_421598144" class="fil1" points="3.42405,4.65146 7.21031,8.43774 7.20954,8.43731 3.42328,4.65104 "/>
     <polygon id="_421598288" class="fil1" points="3.42328,4.65104 7.20954,8.43731 7.20927,8.43717 3.423,4.65089 "/>
     <polygon id="_421598168" class="fil1" points="3.423,4.65089 7.20927,8.43717 7.20844,8.43671 3.42217,4.65044 "/>
     <polygon id="_421598048" class="fil1" points="3.42217,4.65044 7.20844,8.43671 7.20822,8.43659 3.42195,4.65032 "/>
     <polygon id="_421597736" class="fil1" points="3.42195,4.65032 7.20822,8.43659 7.20734,8.43611 3.42107,4.64984 "/>
     <polygon id="_421597568" class="fil1" points="3.42107,4.64984 7.20734,8.43611 7.20717,8.43602 3.4209,4.64975 "/>
     <polygon id="_421598240" class="fil1" points="3.4209,4.64975 7.20717,8.43602 7.20623,8.43551 3.41996,4.64924 "/>
     <polygon id="_421597616" class="fil1" points="3.41996,4.64924 7.20623,8.43551 7.20611,8.43545 3.41985,4.64918 "/>
     <polygon id="_421598072" class="fil1" points="3.41985,4.64918 7.20611,8.43545 7.20562,8.43518 3.41935,4.64891 "/>
     <polygon id="_421597928" class="fil1" points="3.41935,4.64891 7.20562,8.43518 7.19744,8.43813 7.18943,8.44118 7.18158,8.4443 7.17391,8.44748 7.16641,8.45074 7.15908,8.45405 7.15193,8.45741 7.14496,8.4608 7.13816,8.46423 7.13154,8.46768 7.12509,8.47115 7.11882,8.47462 7.11274,8.4781 7.10683,8.48157 7.10111,8.48502 7.09557,8.48844 7.09022,8.49184 7.08505,8.4952 7.08006,8.4985 7.07526,8.50176 7.07065,8.50495 7.06623,8.50807 7.062,8.51111 7.05795,8.51406 7.0541,8.51692 7.05044,8.51968 7.04698,8.52232 7.0437,8.52485 7.04063,8.52725 7.03775,8.52952 7.03506,8.53164 7.03258,8.53361 3.24631,4.74734 3.2488,4.74537 3.25148,4.74324 3.25436,4.74098 3.25744,4.73858 3.26071,4.73605 3.26418,4.73341 3.26783,4.73065 3.27169,4.72779 3.27573,4.72484 3.27996,4.7218 3.28439,4.71868 3.289,4.71549 3.2938,4.71223 3.29878,4.70893 3.30395,4.70557 3.3093,4.70217 3.31485,4.69874 3.32057,4.6953 3.32647,4.69183 3.33256,4.68835 3.33882,4.68488 3.34527,4.68141 3.35189,4.67796 3.35869,4.67453 3.36567,4.67113 3.37281,4.66778 3.38014,4.66447 3.38764,4.66121 3.39531,4.65802 3.40316,4.65491 3.41117,4.65186 "/>
     <polygon id="_421598600" class="fil1" points="3.50739,4.7292 7.29366,8.51548 7.29103,8.51517 7.28766,8.51646 7.28367,8.51913 7.27914,8.52296 7.27417,8.52772 7.26886,8.53322 7.26331,8.53922 7.25761,8.5455 7.25187,8.55185 7.24617,8.55805 7.24061,8.56388 7.2353,8.56912 7.23033,8.57355 7.22579,8.57696 7.22178,8.57912 7.21841,8.57982 7.21576,8.57884 3.42949,4.79257 3.43214,4.79355 3.43552,4.79285 3.43952,4.79069 3.44406,4.78728 3.44904,4.78285 3.45435,4.77761 3.4599,4.77178 3.4656,4.76558 3.47135,4.75923 3.47704,4.75294 3.48259,4.74695 3.4879,4.74145 3.49287,4.73669 3.4974,4.73285 3.50139,4.73019 3.50476,4.7289 "/>
     <polygon id="_421598552" class="fil1" points="4.94493,5.1424 8.7312,8.92867 8.71972,8.93426 8.70125,8.93711 8.67625,8.93739 8.64522,8.93527 8.60864,8.9309 8.56699,8.92447 8.52074,8.91613 8.47039,8.90606 8.41642,8.89443 8.3593,8.88139 8.29952,8.86713 8.23756,8.8518 8.17391,8.83557 8.10904,8.81863 8.04344,8.80112 7.97759,8.78322 7.91198,8.7651 7.84708,8.74693 7.78337,8.72886 7.72135,8.71108 7.66149,8.69374 7.60427,8.67703 7.55018,8.66109 7.49969,8.64611 7.4533,8.63226 7.41148,8.61969 7.37471,8.60857 7.34348,8.59908 7.31827,8.59138 7.29956,8.58564 7.28783,8.58202 7.28357,8.58071 3.4973,4.79444 3.50156,4.79575 3.51329,4.79937 3.532,4.80511 3.55721,4.81281 3.58844,4.8223 3.62521,4.83341 3.66703,4.84598 3.71343,4.85984 3.76391,4.87482 3.818,4.89076 3.87522,4.90747 3.93508,4.92481 3.99711,4.94259 4.06081,4.96065 4.12571,4.97883 4.19133,4.99695 4.25718,5.01485 4.32278,5.03235 4.38764,5.0493 4.4513,5.06552 4.51325,5.08085 4.57303,5.09512 4.63015,5.10815 4.68413,5.11979 4.73448,5.12986 4.78072,5.1382 4.82237,5.14463 4.85896,5.149 4.88998,5.15112 4.91498,5.15084 4.93345,5.14799 "/>
     <polygon id="_421599032" class="fil1" points="2.38574,4.27894 6.172,8.06522 6.16688,8.06096 6.16174,8.0567 6.1566,8.05245 6.15145,8.04819 6.1463,8.04393 6.14114,8.03967 6.13597,8.03541 6.1308,8.03115 6.12563,8.02689 6.12046,8.02263 6.11528,8.01837 6.1101,8.01412 6.10491,8.00987 6.09973,8.00561 6.09455,8.00137 6.08936,7.99712 6.08418,7.99288 6.079,7.98865 6.07381,7.98442 6.06863,7.98019 6.06346,7.97597 6.05828,7.97175 6.05311,7.96754 6.04794,7.96334 6.04278,7.95914 6.03763,7.95495 6.03248,7.95077 6.02733,7.94659 6.02219,7.94243 6.01706,7.93827 6.01193,7.93412 6.00682,7.92998 2.22055,4.14371 2.22567,4.14785 2.23079,4.152 2.23592,4.15616 2.24106,4.16032 2.24621,4.1645 2.25136,4.16868 2.25652,4.17287 2.26168,4.17707 2.26685,4.18127 2.27202,4.18548 2.27719,4.1897 2.28237,4.19392 2.28755,4.19815 2.29273,4.20237 2.29791,4.20661 2.30309,4.21085 2.30828,4.21509 2.31346,4.21934 2.31865,4.22359 2.32383,4.22785 2.32901,4.2321 2.33419,4.23636 2.33936,4.24062 2.34454,4.24487 2.3497,4.24913 2.35487,4.2534 2.36003,4.25766 2.36519,4.26192 2.37033,4.26618 2.37547,4.27043 2.38061,4.27469 "/>
     <polygon id="_421598960" class="fil1" points="2.55364,4.94502 6.33991,8.73129 6.31105,8.73816 6.28239,8.74493 6.25396,8.75159 6.22578,8.75815 6.19787,8.76459 6.17026,8.77092 6.14298,8.77713 6.11606,8.7832 6.08951,8.78915 6.06337,8.79497 6.03766,8.80064 6.0124,8.80618 5.98763,8.81156 5.96336,8.8168 5.93963,8.82187 5.91645,8.82679 5.89386,8.83155 5.87188,8.83613 5.85054,8.84054 5.82986,8.84478 5.80987,8.84883 5.79059,8.8527 5.77205,8.85637 5.75428,8.85986 5.7373,8.86314 5.72113,8.86622 5.70581,8.86909 5.69135,8.87176 5.67779,8.8742 5.66515,8.87643 5.65345,8.87843 5.64273,8.8802 1.85646,5.09393 1.86719,5.09215 1.87888,5.09015 1.89152,5.08793 1.90508,5.08548 1.91954,5.08282 1.93486,5.07995 1.95103,5.07687 1.96801,5.07359 1.98578,5.0701 2.00432,5.06643 2.0236,5.06256 2.04359,5.05851 2.06428,5.05427 2.08561,5.04986 2.10759,5.04528 2.13019,5.04052 2.15336,5.0356 2.17709,5.03052 2.20136,5.02529 2.22613,5.01991 2.25139,5.01437 2.2771,5.0087 2.30324,5.00288 2.32979,4.99693 2.35672,4.99085 2.384,4.98465 2.4116,4.97832 2.43951,4.97188 2.46769,4.96532 2.49613,4.95866 2.52478,4.95189 "/>
     <polygon id="_421598624" class="fil1" points="1.85646,5.09393 5.64273,8.8802 5.63037,8.88048 5.61779,8.8775 5.60502,8.87147 5.59211,8.86259 1.80585,5.07632 1.81876,5.0852 1.83152,5.09123 1.8441,5.09421 "/>
     <polygon id="_421598480" class="fil1" points="2.79437,4.29885 6.58064,8.08512 6.57266,8.07836 6.56036,8.0683 6.54404,8.05517 6.524,8.03919 6.50053,8.02059 6.47394,7.99961 6.44454,7.97649 6.41261,7.95144 6.37845,7.92469 6.34237,7.89649 6.30467,7.86706 6.26563,7.83662 6.22558,7.80541 6.1848,7.77367 6.14358,7.74161 6.10224,7.70948 6.06107,7.6775 6.02038,7.6459 5.98045,7.61491 5.94159,7.58476 5.90411,7.55569 5.86829,7.52792 5.83443,7.50169 5.80285,7.47721 5.77383,7.45474 5.74768,7.43448 5.72469,7.41669 5.70517,7.40157 5.68941,7.38938 5.67772,7.38033 5.67039,7.37466 5.66772,7.3726 1.88145,3.58633 1.88412,3.58839 1.89145,3.59406 1.90315,3.60311 1.9189,3.6153 1.93843,3.63042 1.96141,3.64821 1.98756,3.66846 2.01658,3.69094 2.04817,3.71541 2.08202,3.74165 2.11784,3.76942 2.15533,3.79849 2.19419,3.82864 2.23411,3.85963 2.27481,3.89123 2.31598,3.92321 2.35731,3.95534 2.39853,3.9874 2.43931,4.01914 2.47937,4.05035 2.5184,4.08078 2.5561,4.11022 2.59218,4.13842 2.62634,4.16517 2.65827,4.19022 2.68768,4.21334 2.71426,4.23432 2.73773,4.25291 2.75777,4.26889 2.77409,4.28203 2.78639,4.29209 "/>
     <polygon id="_421598672" class="fil1" points="1.88145,3.58633 5.66772,7.3726 5.66611,7.37272 5.66372,7.37139 5.66074,7.36875 1.87447,3.58248 1.87746,3.58512 1.87985,3.58644 "/>
     <polygon id="_421598768" class="fil1" points="3.24631,4.74734 7.03258,8.53361 7.02487,8.53891 7.01473,8.54454 7.00233,8.55046 6.9878,8.55667 6.97131,8.56312 6.95301,8.56979 6.93304,8.57665 6.91157,8.58368 6.88874,8.59084 6.8647,8.59812 6.83962,8.60548 6.81363,8.6129 6.78691,8.62035 6.75958,8.6278 6.73181,8.63522 6.70376,8.6426 6.67556,8.64989 6.64739,8.65708 6.61937,8.66413 6.59169,8.67103 6.56447,8.67773 6.53788,8.68422 6.51207,8.69047 6.48719,8.69645 6.46339,8.70213 6.44082,8.70748 6.41964,8.71249 6.40001,8.71711 6.38206,8.72133 6.36596,8.72512 6.35186,8.72845 6.33991,8.73129 2.55364,4.94502 2.56559,4.94218 2.5797,4.93885 2.5958,4.93506 2.61374,4.93084 2.63337,4.92622 2.65455,4.92121 2.67712,4.91585 2.70092,4.91018 2.7258,4.9042 2.75161,4.89795 2.7782,4.89146 2.80542,4.88476 2.83311,4.87786 2.86112,4.87081 2.8893,4.86362 2.91749,4.85633 2.94554,4.84895 2.97331,4.84153 3.00064,4.83408 3.02737,4.82663 3.05335,4.81921 3.07844,4.81185 3.10247,4.80457 3.1253,4.79741 3.14678,4.79038 3.16674,4.78352 3.18505,4.77685 3.20154,4.7704 3.21606,4.76419 3.22846,4.75827 3.2386,4.75264 "/>
     <polygon id="_421598840" class="fil1" points="5.22833,4.79297 9.0146,8.57924 9.0075,8.59338 9.00209,8.6052 8.99825,8.61485 8.99587,8.62249 8.99483,8.6283 8.99501,8.63243 8.9963,8.63505 5.21003,4.84878 5.20874,4.84616 5.20856,4.84203 5.2096,4.83622 5.21198,4.82857 5.21582,4.81893 5.22123,4.80711 "/>
     <polygon id="_421598336" class="fil1" points="5.26126,4.89722 9.04753,8.68349 9.04505,8.68789 9.04233,8.69207 9.03939,8.69603 9.03622,8.69975 9.03286,8.70323 9.02931,8.70647 9.02558,8.70947 9.02169,8.71222 5.23543,4.92595 5.23931,4.9232 5.24304,4.9202 5.24659,4.91696 5.24996,4.91348 5.25312,4.90976 5.25607,4.9058 5.25878,4.90162 "/>
     <polygon id="_421599320" class="fil1" points="3.48649,1.99801 7.27276,5.78428 7.27764,5.78998 7.28198,5.79617 7.28573,5.80284 7.28883,5.80996 7.29125,5.81749 3.50498,2.03122 3.50257,2.02369 3.49946,2.01657 3.49571,2.0099 3.49137,2.0037 "/>
     <polygon id="_421599536" class="fil1" points="3.50498,2.03122 7.29125,5.81749 7.28807,5.8278 7.28699,5.84011 7.2879,5.85431 7.29067,5.87024 7.2952,5.88778 7.30137,5.90679 7.30906,5.92714 7.31815,5.94869 7.32854,5.9713 7.3401,5.99484 7.35272,6.01919 7.36628,6.04419 7.38067,6.06971 7.39576,6.09563 7.41146,6.1218 7.42763,6.14809 7.44417,6.17436 7.46094,6.20048 7.47786,6.22633 7.49479,6.25174 7.51161,6.27661 7.52822,6.30078 7.5445,6.32413 7.56033,6.34651 7.5756,6.3678 7.59018,6.38786 7.60397,6.40655 7.61685,6.42374 7.6287,6.43929 7.6394,6.45307 7.64884,6.46495 7.65691,6.47478 3.87065,2.68851 3.86257,2.67868 3.85313,2.6668 3.84243,2.65302 3.83058,2.63747 3.8177,2.62028 3.80391,2.60159 3.78933,2.58153 3.77406,2.56024 3.75824,2.53785 3.74196,2.51451 3.72535,2.49033 3.70852,2.46547 3.69159,2.44006 3.67468,2.41421 3.6579,2.38809 3.64136,2.36181 3.62519,2.33552 3.6095,2.30935 3.5944,2.28344 3.58001,2.25791 3.56645,2.23291 3.55383,2.20857 3.54227,2.18503 3.53189,2.16241 3.52279,2.14087 3.5151,2.12052 3.50893,2.10151 3.50441,2.08397 3.50163,2.06804 3.50072,2.05384 3.5018,2.04152 "/>
     <polygon id="_421599680" class="fil1" points="3.87065,2.68851 7.65691,6.47478 7.66735,6.48724 7.67772,6.49965 7.68804,6.51203 7.69828,6.52439 7.70844,6.53674 7.71852,6.5491 7.72852,6.56148 7.73841,6.57389 7.74821,6.58635 7.7579,6.59888 7.76747,6.61148 7.77693,6.62417 7.78626,6.63696 7.79545,6.64987 7.8045,6.66291 7.81342,6.6761 7.82217,6.68944 7.83078,6.70296 7.83921,6.71666 7.84748,6.73056 7.85557,6.74467 7.86347,6.75901 7.87119,6.77359 7.87871,6.78843 7.88603,6.80353 7.89314,6.81891 7.90004,6.83459 7.90671,6.85058 7.91316,6.86689 7.91938,6.88354 7.92535,6.90054 7.93109,6.9179 4.14482,3.13163 4.13909,3.11426 4.13311,3.09727 4.12689,3.08062 4.12044,3.06431 4.11377,3.04832 4.10687,3.03264 4.09976,3.01726 4.09244,3.00215 4.08492,2.98732 4.0772,2.97274 4.0693,2.9584 4.06121,2.94429 4.05294,2.93039 4.04451,2.91669 4.03591,2.90317 4.02715,2.88983 4.01824,2.87664 4.00918,2.8636 3.99999,2.85069 3.99066,2.8379 3.9812,2.8252 3.97163,2.81261 3.96194,2.80008 3.95215,2.78762 3.94225,2.7752 3.93226,2.76283 3.92217,2.75046 3.91201,2.73811 3.90177,2.72576 3.89146,2.71338 3.88108,2.70097 "/>
     <polygon id="_421599200" class="fil1" points="5.14143,3.9741 8.92769,7.76037 8.92663,7.76071 8.92375,7.76189 8.91917,7.76386 8.91302,7.76657 8.90539,7.76996 8.89642,7.77399 8.8862,7.77859 8.87487,7.78372 8.86253,7.78933 8.84929,7.79535 8.83528,7.80173 8.8206,7.80843 8.80537,7.81539 8.78971,7.82255 8.77373,7.82987 8.75754,7.83728 8.74127,7.84474 8.72502,7.8522 8.70891,7.8596 8.69305,7.86688 8.67757,7.874 8.66256,7.88089 8.64816,7.88752 8.63447,7.89382 8.6216,7.89974 8.60968,7.90522 8.59882,7.91023 8.58913,7.91469 8.58072,7.91856 8.57372,7.92179 8.56824,7.92432 8.56438,7.9261 4.77811,4.13983 4.78197,4.13805 4.78745,4.13552 4.79446,4.13229 4.80286,4.12842 4.81255,4.12396 4.82341,4.11895 4.83533,4.11346 4.8482,4.10755 4.86189,4.10125 4.8763,4.09462 4.8913,4.08772 4.90678,4.08061 4.92264,4.07333 4.93875,4.06593 4.955,4.05847 4.97128,4.05101 4.98746,4.04359 5.00344,4.03628 5.0191,4.02911 5.03433,4.02216 5.04901,4.01546 5.06302,4.00907 5.07626,4.00306 5.0886,3.99745 5.09994,3.99232 5.11015,3.98772 5.11912,3.98369 5.12675,3.9803 5.13291,3.97759 5.13748,3.97562 5.14036,3.97444 "/>
     <polygon id="_421599392" class="fil1" points="5.28841,4.81898 9.07467,8.60526 9.07596,8.60839 9.07615,8.6131 9.07512,8.61955 9.07274,8.62789 9.06891,8.6383 9.06351,8.65093 9.05642,8.66593 9.04753,8.68349 5.26126,4.89722 5.27015,4.87966 5.27724,4.86465 5.28265,4.85203 5.28648,4.84162 5.28885,4.83328 5.28989,4.82683 5.2897,4.82212 "/>
     <polygon id="_421599416" class="fil1" points="5.23543,4.92595 9.02169,8.71222 8.99793,8.7293 5.21166,4.94302 "/>
     <polygon id="_421599560" class="fil1" points="5.21166,4.94302 8.99793,8.7293 8.99711,8.72988 5.21085,4.94361 "/>
     <polygon id="_421599704" class="fil1" points="5.21085,4.94361 8.99711,8.72988 8.9934,8.73256 5.20713,4.94629 "/>
     <polygon id="_421599752" class="fil1" points="5.16545,3.84987 8.95172,7.63614 8.95606,7.64105 8.96002,7.64637 8.96355,7.6521 8.96661,7.65821 5.18035,3.87194 5.17728,3.86583 5.17375,3.8601 5.1698,3.85478 "/>
     <polygon id="_421599824" class="fil1" points="5.18035,3.87194 8.96661,7.65821 8.96948,7.66559 8.97155,7.67307 8.97285,7.68061 8.97338,7.68815 8.97317,7.69565 8.97224,7.70305 8.97062,7.7103 8.96831,7.71735 8.96534,7.72415 8.96173,7.73065 8.9575,7.73679 8.95267,7.74252 8.94725,7.7478 8.94127,7.75257 8.93474,7.75678 8.92769,7.76037 5.14143,3.9741 5.14848,3.9705 5.155,3.9663 5.16098,3.96153 5.1664,3.95625 5.17123,3.95052 5.17546,3.94437 5.17907,3.93788 5.18204,3.93108 5.18435,3.92403 5.18598,3.91678 5.18691,3.90938 5.18711,3.90188 5.18658,3.89434 5.18528,3.8868 5.18322,3.87931 "/>
    </g>
    <path id="_414980144" class="fil1" d="M3.45698 4.67589l0 0zm0.000271654 -0.000377953l0 0zm0.000283465 -0.000389764l0 0zm0.00023622 -0.000322835l0 0zm0.000582677 -0.000775591l0 0zm0.00026378 -0.000346457l0 0zm0.000582677 -0.000751969l0 0zm0.000279528 -0.000350394l0 0zm0.000299213 -0.000374016l0 0zm0.00026378 -0.000326772l0 0zm-0.0205079 -0.011937l0 0zm0.70528 -1.52831c0.0964252,0.301827 0.0488307,0.546772 -0.0709252,0.72228l0.224406 -0.103028c-0.100134,0.0866929 -0.189012,0.161579 -0.293768,0.238189l1.08997 -0.161291c0.0346496,-0.0070315 0.0707756,0.0105472 0.0858465,0.0441654 0.0174606,0.0389567 3.93701e-005,0.0846969 -0.0389213,0.102161 -0.00132283,-0.0011063 -0.331303,0.150957 -0.363311,0.165724 -0.241929,0.11165 -0.443177,0.204524 -0.668988,0.290472l0.0306378 0.0148465 0.208268 0.0820315 0.0532323 0.0209685 0.270146 -0.0302953c-0.00076378,-0.00688189 0.0412598,0.00632677 0.0467598,0.00945669l0.510161 0.265661c-0.0851535,0.163823 0.13785,-0.0971969 0.0329291,0.104252 -0.00626772,0.0120354 -0.0152638,0.0217323 -0.0258346,0.0287283l-0.0237638 0.0170748 -0.000814961 0.000586614 -0.00371654 0.00267717 -0.00390945 0.0028189 -0.00409449 0.00295669 -0.00427559 0.00308268 -0.00444094 0.00320472 -0.000137795 9.84252e-005c-0.0490236,0.0354055 -0.126118,0.0914488 -0.182311,0.134008l-0.00034252 0.000259843 -0.00034252 0.000259843 -0.00034252 0.000259843 -0.00034252 0.000259843 -0.00034252 0.000259843 -0.000681102 0.000515748 -0.000173228 0.000133858 -0.000169291 0.000125984 -0.000338583 0.000255906 -0.000677165 0.000515748 -0.000338583 0.000255906 -0.000334646 0.000255906 -0.000338583 0.000255906 -0.000334646 0.000255906 -0.000334646 0.000255906 -0.000334646 0.000251969 -0.000334646 0.000255906 -0.000334646 0.000255906 -0.000334646 0.000251969 -0.000330709 0.000251969 -0.000334646 0.000255906 -0.00019685 0.000149606 -0.000133858 0.000102362 -0.000330709 0.000251969 -0.000330709 0.000251969 -0.000330709 0.000251969 -0.000326772 0.000251969 -0.000330709 0.000248031 -0.000326772 0.000251969 -0.000326772 0.000248031 -0.000326772 0.000251969 -0.000326772 0.000248031 -0.000326772 0.000248031 -0.000326772 0.000248031 -0.000322835 0.000248031 -0.000322835 0.000248031 -0.000322835 0.000248031 -0.000224409 0.000169291 -9.84252e-005 7.87402e-005 -0.000322835 0.000244094 -0.000322835 0.000248031 -0.000318898 0.000244094 -0.000322835 0.000244094 -0.000318898 0.000244094 -0.000318898 0.000248031 -0.000318898 0.000240157 -0.000314961 0.000244094 -0.000318898 0.000244094 -0.000314961 0.000244094 -0.000314961 0.000240157 -0.000314961 0.000244094 -0.000314961 0.000240157 -0.000314961 0.000240157 -0.000244094 0.000185039 -7.08661e-005 5.51181e-005 -0.000311024 0.000240157 -0.000311024 0.000240157 -0.000311024 0.000240157 -0.000311024 0.000240157 -0.000311024 0.00023622 -0.000311024 0.000240157 -0.000307087 0.00023622c-0.0194094,0.0149252 -0.0348465,0.0272126 -0.0434213,0.0349724 -0.0833504,0.0748819 -1.44371,-0.346756 -1.44763,-0.347961 0.0630906,-0.205276 -0.130559,0.16048 -0.0512126,-0.0964882 0.00241339,-0.0078189 0.00596063,-0.0149764 0.0103976,-0.0213543l5.90551e-005 -8.26772e-005 5.51181e-005 -8.26772e-005 5.90551e-005 -8.26772e-005 5.90551e-005 -8.26772e-005 5.51181e-005 -8.26772e-005 5.90551e-005 -7.87402e-005 5.90551e-005 -8.26772e-005 5.51181e-005 -8.26772e-005 5.90551e-005 -8.26772e-005 5.90551e-005 -7.87402e-005 5.90551e-005 -8.26772e-005 5.90551e-005 -8.26772e-005 7.08661e-005 -9.84252e-005 4.72441e-005 -6.29921e-005 5.90551e-005 -8.26772e-005 5.90551e-005 -8.26772e-005 5.90551e-005 -7.87402e-005 5.90551e-005 -8.26772e-005 5.90551e-005 -7.87402e-005 5.90551e-005 -8.26772e-005 5.90551e-005 -7.87402e-005 8.66142e-005 -0.00011811 3.14961e-005 -4.33071e-005 5.90551e-005 -8.26772e-005 6.29921e-005 -7.87402e-005 5.90551e-005 -8.26772e-005 6.29921e-005 -8.26772e-005 5.51181e-005 -7.48031e-005 6.29921e-005 -8.26772e-005 5.90551e-005 -7.87402e-005 5.90551e-005 -7.87402e-005 6.29921e-005 -8.26772e-005 5.90551e-005 -7.87402e-005 6.29921e-005 -7.87402e-005 5.90551e-005 -7.87402e-005 7.87402e-005 -0.000106299 4.33071e-005 -5.51181e-005 6.29921e-005 -7.87402e-005 5.90551e-005 -7.87402e-005 6.29921e-005 -7.87402e-005 5.90551e-005 -7.87402e-005 6.29921e-005 -7.87402e-005 6.29921e-005 -7.87402e-005 5.90551e-005 -7.87402e-005 6.29921e-005 -7.87402e-005 6.29921e-005 -7.87402e-005 6.29921e-005 -7.87402e-005 5.90551e-005 -7.87402e-005 6.29921e-005 -7.87402e-005 7.08661e-005 -9.05512e-005 5.51181e-005 -6.69291e-005 6.29921e-005 -7.87402e-005 6.29921e-005 -7.87402e-005 5.90551e-005 -7.48031e-005 6.29921e-005 -7.87402e-005 6.29921e-005 -7.87402e-005 6.29921e-005 -7.87402e-005 6.29921e-005 -7.48031e-005 9.05512e-005 -0.000110236 3.93701e-005 -4.72441e-005 6.29921e-005 -7.48031e-005 6.29921e-005 -7.87402e-005 6.29921e-005 -7.48031e-005 6.29921e-005 -7.87402e-005 -0.000964567 -0.00053937 -4.72441e-005 -2.75591e-005 -0.00092126 -0.000515748 -9.44882e-005 -5.11811e-005 -0.000874016 -0.000492126 -0.000145669 -7.87402e-005 -0.000830709 -0.000464567 -0.000192913 -0.000106299 -0.000783465 -0.000437008 -0.000240157 -0.000133858 -0.00073622 -0.000409449 -0.000291339 -0.000165354 -0.000692913 -0.00038189 -0.000338583 -0.000188976 -0.000645669 -0.000358268 -0.000389764 -0.000216535 -0.000594488 -0.000330709 -0.000444882 -0.000248031 -0.000547244 -0.00030315 -0.000492126 -0.000271654 -0.0005 -0.000279528 -0.000543307 -0.000299213 -0.000448819 -0.000251969 -0.000594488 -0.000326772 -0.000405512 -0.000224409 -0.000645669 -0.000354331 -0.000354331 -0.00019685 -0.00069685 -0.000385827 -0.00030315 -0.000169291 -0.000748031 -0.000413386 -0.000259843 -0.000141732 -0.000799213 -0.000440945 -0.000204724 -0.000114173 -0.000854331 -0.000468504 -0.00015748 -8.66142e-005 -0.000901575 -0.0005 -0.000110236 -5.90551e-005 -0.000181102 -9.84252e-005 -0.00185039 -0.00101969 -0.00101575 -0.000559055 -4.33071e-005 -2.3622e-005 -0.000980315 -0.000535433 -9.05512e-005 -5.11811e-005 -0.000929134 -0.000511811 -0.000145669 -7.87402e-005 -0.00088189 -0.000480315 -0.00019685 -0.000110236 -0.000830709 -0.000452756 -0.000248031 -0.000137795 -0.000779528 -0.000429134 -0.000299213 -0.000161417 -0.000732283 -0.000401575 -0.000350394 -0.000192913 -0.000685039 -0.000370079 -0.000401575 -0.000220472 -0.000633858 -0.000346457 -0.000452756 -0.000248031 -0.000582677 -0.000318898 -0.000507874 -0.000279528 -0.000531496 -0.000287402 -0.000559055 -0.000307087 -0.000480315 -0.00026378 -0.000614173 -0.000330709 -0.000429134 -0.00023622 -0.000665354 -0.000362205 -0.000377953 -0.000208661 -0.000720472 -0.000389764 -0.000326772 -0.000177165 -0.000771654 -0.00042126 -0.000275591 -0.000149606 -0.000826772 -0.000452756 -0.000224409 -0.00011811 -0.000877953 -0.000480315 -0.000173228 -9.44882e-005 -0.000933071 -0.000507874 -0.00011811 -6.29921e-005 -0.000492126 -0.000267717c-0.0881969,0.0310157 -0.147587,0.0782087 -0.173043,0.0984331 -0.0687835,0.0546535 -0.577189,0.170079 -0.692669,0.197677 -0.308768,0.0737874 -0.588059,0.131248 -0.697181,0.148906 -0.130528,0.021126 -0.305327,-0.549323 -0.315909,-0.584268 -0.0138425,-0.0420827 0.0110472,-0.0876575 0.0539291,-0.0988543l0.557303 -0.145264c0.0324843,-0.0115079 0.190693,0.00964961 0.233953,0.0134055 -0.0546535,-0.0453701 -0.110661,-0.0911339 -0.165185,-0.135232l0.401063 0.155705 0.123079 0.0106811 0.0496811 -0.011252c-0.0610315,-0.0536299 -0.91039,-0.710563 -0.912921,-0.71252 -0.00612205,0.00464961 -0.0539055,-0.0567638 -0.0140394,-0.108295 0.0228228,-0.0295 0.0627638,-0.0379567 0.0950079,-0.0222047l1.01751 0.395024c-0.0878819,-0.18252 -0.100331,-0.447693 0.0235827,-0.803197 0.013937,-0.054 0.08,-0.0765157 0.123984,-0.0403031 -6.29921e-005,7.48031e-005 0.171335,0.253224 0.179453,0.276071 0.0156969,0.044185 0.0278937,0.090878 0.0355591,0.138602 0.0220472,-0.0384764 0.0352165,-0.079815 0.0417638,-0.122965l-0.000291339 -0.0010315 -0.000291339 -0.0010315 -0.000165354 -0.000594488 -0.000122047 -0.000437008 -0.000295276 -0.0010315 -0.000291339 -0.0010315 -0.000291339 -0.0010315 -0.000291339 -0.00102756 -0.000295276 -0.0010315 -0.000106299 -0.000377953 -0.000188976 -0.000649606 -0.000291339 -0.0010315 -0.000295276 -0.00102756 -0.000295276 -0.00102756 -0.000295276 -0.00102756 -0.000295276 -0.00102362 -4.72441e-005 -0.000169291 -0.000248031 -0.000858268 -0.000295276 -0.00102756 -0.000299213 -0.00102362 -0.000295276 -0.00102756 -0.000299213 -0.00102362 -0.000279528 -0.000976378 -1.5748e-005 -4.72441e-005 -0.000299213 -0.00102362 -0.000299213 -0.00102362 -0.000295276 -0.00101969 -0.000299213 -0.00102362 -0.000299213 -0.00101969 -0.000220472 -0.00076378 -7.87402e-005 -0.000259843 -0.000299213 -0.00101969 -0.000299213 -0.00101969 -0.000299213 -0.00101969 -0.000299213 -0.00101969 -0.000299213 -0.00101575 -0.000161417 -0.000551181 -0.000141732 -0.000468504 -0.000299213 -0.00101575 -0.000299213 -0.00101575 -0.000299213 -0.00101575 -0.00030315 -0.00101575 -0.000299213 -0.00101575 -9.84252e-005 -0.000338583 -0.00801181 -0.0268189c-0.0211142,-0.0704331 -0.0408071,-0.136102 -0.045185,-0.194819 -0.00424016,-0.0568819 -0.0055315,-0.112811 -0.00137008,-0.166693 -0.0266457,-0.0889606 -0.0587205,-0.187925 -0.0656299,-0.280598 -0.00793701,-0.106472 -0.00848031,-0.210575 0.00674409,-0.308579 0.0156102,-0.100476 0.0477362,-0.193059 0.104969,-0.273161 0.0100236,-0.0160591 0.025937,-0.0284961 0.0456732,-0.033752 0.0412559,-0.0109843 0.0836102,0.0135591 0.0945906,0.054815 -0.0455551,0.0987087 0.287343,0.56378 0.365661,0.657287 0.111575,0.133205 0.214374,0.255937 0.274173,0.443118zm-1.06307 -0.594362l-0.0154252 0.041689c-0.042815,0.115764 0.00951575,0.224567 0.0109213,0.227457l0.0594409 -0.00176378c0.0163543,0.0337874 -0.0570709,0.0761299 -0.0908583,0.0924843 -0.0258976,0.0125394 -0.0558228,0.00716535 -0.0757559,-0.011248 -0.333307,-0.254059 -0.214063,-0.498177 -0.0824134,-0.76752 0.0596496,-0.122035 0.122228,-0.250071 0.133843,-0.380894 -0.00916535,-0.00588189 0.0219764,-0.0664291 0.0734449,-0.0618661 0.0241772,0.00214567 0.0442677,0.0167087 0.0545512,0.0368465 0.143945,0.25285 0.111949,0.339386 -0.067748,0.824815z"/>
   </g>
  </g>
  <path class="fil2" d="M3.41333 0c1.88513,0 3.41333,1.5282 3.41333,3.41333 0,1.88513 -1.5282,3.41333 -3.41333,3.41333 -1.88513,0 -3.41333,-1.5282 -3.41333,-3.41333 0,-1.88513 1.5282,-3.41333 3.41333,-3.41333z"/>
  <path class="fil3" d="M3.18702 3.98714c0.00119291,0.016878 0.0255906,-0.0232047 0.0593937,-0.00345669 0.0731339,0.0427205 0.17737,0.0982362 0.288874,0.155701l8.66142e-005 -0.000165354c0.0379449,0.0195551 0.0528543,0.0661811 0.0332992,0.10413 -0.0114921,0.0222992 -0.0323346,0.0366378 -0.0552717,0.0407047 -0.0791535,0.0206654 -0.159228,0.0408819 -0.235449,0.0597165 -0.116118,0.028689 -0.214098,0.0522717 -0.289697,0.070189l7.87402e-006 3.14961e-005c-0.0113543,0.00269291 -0.0227165,0.00272441 -0.0334331,0.000507874 -0.0270354,-0.00418504 -0.0516535,-0.00946063 -0.0713701,-0.0163228 -0.0495039,-0.0172087 -0.0781181,-0.0474094 -0.0755276,-0.0957992 0.000370079,-0.00688189 -0.913882,-0.714008 -0.916508,-0.716039l0.0471063 -0.0609961 -0.0472992 0.0611457c-0.0337677,-0.026122 -0.0399685,-0.0746772 -0.0138465,-0.108445 0.0228228,-0.0295 0.0627638,-0.0379567 0.0950118,-0.0222047l1.1654 0.452437 -0.0277835 0.0718661 0.0279764 -0.072063c0.0328976,0.0127717 0.0520866,0.0455906 0.0490276,0.079063z"/>
  <path class="fil4" d="M3.92023 3.92569c-0.132752,0.107685 -0.539307,0.334433 -0.541059,0.335409l4.72441e-005 8.26772e-005c-0.00448425,0.00250394 -0.00922047,0.00413386 -0.0140079,0.00495276l-0.312406 0.0623307 -0.238594 0.142669c0.0437913,0.0674252 0.130189,0.200441 0.130295,0.20039 0.0557913,-0.0265354 0.196921,-0.101173 0.351555,-0.189315 0.108047,-0.0615866 0.222626,-0.12974 0.31922,-0.192642l-0.000370079 -0.00026378c-5.11811e-005,1.5748e-005 -7.08661e-005,7.87402e-006 -4.33071e-005,-3.14961e-005 0.0152205,-0.0215039 0.0536181,-0.0757677 0.125051,-0.11885 0.25215,-0.152075 0.392976,-0.267701 0.568354,-0.419539l-0.372 0.170795 2.3622e-005 4.72441e-005c-0.00521654,0.00239764 -0.0106614,0.00368504 -0.0160669,0.00396457z"/>
  <path class="fil5" d="M3.16081 4.62726l0.010189 -0.00309055c0.0117992,-0.00358268 -0.00914173,0.00247638 -0.010689,0.00246457l0.0005 0.000625984z"/>
  <path class="fil4" d="M3.01163 4.47861c-0.0403583,-0.0235709 -0.0732717,-0.046748 -0.0965591,-0.0691339l-0.684551 -0.26576c0.216638,0.175209 0.456709,0.376705 0.542157,0.475437 -7.08661e-005,-0.00409843 0.00127165,-0.00623228 0.0046378,-0.00506299 0.00741339,0.00257874 0.0189291,0.0050748 0.0330906,0.00747638 0.088563,-0.0210236 0.186984,-0.0446535 0.273831,-0.0661142 0.0151181,-0.00373228 0.0302008,-0.00747244 0.0452087,-0.0112087 -0.0449803,-0.024248 -0.0850787,-0.0465079 -0.117815,-0.0656339z"/>
  <path class="fil3" d="M3.96071 4.35289c0.0998071,0.0490866 0.173437,0.0847244 0.189031,0.0922638l0.2615 0.103 0.270146 -0.0302953 -1.5748e-005 -0.000141732c0.0168661,-0.00188976 0.0330709,0.00180315 0.0467756,0.00959843l0.510161 0.265661 -0.0356299 0.0685472 0.0357047 -0.068563c0.0378661,0.0197165 0.0525748,0.0664016 0.0328583,0.104268 -0.00627165,0.0120354 -0.0152677,0.0217323 -0.0258386,0.0287283 -0.0246693,0.017685 -0.246543,0.176961 -0.290496,0.216449 -0.0833504,0.0748819 -1.44371,-0.346756 -1.44763,-0.347961l0.0226496 -0.0736811 -0.022811 0.0738622c-0.0407874,-0.0125945 -0.0636457,-0.0558819 -0.0510512,-0.0966693 0.00307874,-0.00998031 0.00800394,-0.0188819 0.0142756,-0.0264567 -0.0215709,-0.0120866 -0.0453504,-0.0249646 -0.0696299,-0.0380748l0.0365354 -0.0679449 -0.0367244 0.0680197c-0.0375669,-0.0202835 -0.0515787,-0.0671811 -0.0312953,-0.104744 0.0113543,-0.0210276 0.0310472,-0.0346732 0.0527756,-0.0390591l0.000602362 -0.000165354c0.00533465,-0.00147638 0.00605118,-0.00170472 0.00686614,-0.00192126 0.0858701,-0.0227677 0.168323,-0.0461969 0.248622,-0.0704685 0.0777008,-0.0234882 0.150012,-0.0468858 0.218555,-0.0704961l-1.9685e-005 -4.72441e-005c0.0221181,-0.00761811 0.0453268,-0.00461417 0.0640787,0.00629134z"/>
  <path class="fil6" d="M4.35801 4.52719l0.025185 0.00992126c-0.00601181,0.00382283 -0.0128937,0.00847244 -0.0206063,0.0136772 -0.0136969,0.00925197 -0.0297756,0.0201024 -0.0485551,0.0312953 0.0162362,-0.00148031 0.0329764,-0.00240551 0.0501299,-0.00278346 0.0150433,-0.000330709 0.0304094,-0.00023622 0.0460394,0.000267717 0.000661417,-0.0025748 0.00129134,-0.00516535 0.00187402,-0.00775197 0.00190157,-0.00847244 0.00325984,-0.0167874 0.00362205,-0.0241575l0.0222008 -0.00249213c-5.90551e-005,0.00990945 -0.0017126,0.0209921 -0.00420079,0.0320669 -0.000251969,0.00111417 -0.000507874,0.00223228 -0.000779528,0.00335039 0.113831,0.00648031 0.239114,0.0342913 0.349717,0.0821969 0.106709,0.0462205 0.185933,0.105272 0.262945,0.162677 0.0565315,0.0421378 0.111858,0.0833661 0.176059,0.117579l-0.0213898 0.0154252c-0.0611693,-0.0338504 -0.114685,-0.0737323 -0.169303,-0.114445 -0.075689,-0.0564173 -0.153563,-0.114469 -0.257157,-0.159339 -0.109945,-0.047622 -0.234913,-0.0747835 -0.347657,-0.0802283 -0.00637795,0.0196575 -0.0134409,0.0359606 -0.0155787,0.0397598l3.93701e-005 2.3622e-005c-0.00015748,0.000275591 -0.000326772,0.000547244 -0.000507874,0.000811024l-4.72441e-005 8.26772e-005c-0.0208189,0.0365827 -0.0500591,0.0682953 -0.0861732,0.0946654 0.200413,0.024811 0.304701,0.0981299 0.442858,0.195295 0.0474764,0.0333898 0.0990315,0.0696457 0.159858,0.107591l0.000385827 0.000212598 -1.5748e-005 1.9685e-005 0.000401575 0.000248031 0.00394094 0.00224016c0.0293071,0.0165827 0.0586811,0.0319055 0.0880276,0.0460236 -0.00738583,0.00559055 -0.0144134,0.0109528 -0.0209921,0.0160157 -0.0262283,-0.0128858 -0.0524685,-0.0267126 -0.0786417,-0.0415236l-0.00434646 -0.00246457 -1.9685e-005 3.93701e-005c-0.000492126,-0.000279528 -0.000952756,-0.00057874 -0.00139764,-0.000897638 -0.0615866,-0.0384213 -0.113425,-0.0748819 -0.161161,-0.108457 -0.141409,-0.0994528 -0.246398,-0.173272 -0.460665,-0.193547 -0.066752,0.0391339 -0.151614,0.0628543 -0.247343,0.0688386 -0.0189685,0.0011811 -0.038374,0.00166535 -0.0581496,0.00143701 -0.0353307,-0.010878 -0.0655906,-0.0201693 -0.0888976,-0.0272953 0.0503386,0.00579921 0.0989173,0.00712992 0.14487,0.00425984 0.0787795,-0.00491732 0.149744,-0.0221811 0.208496,-0.050374 -0.00488583,-0.000287402 -0.00979921,-0.000559055 -0.0147913,-0.000799213 -0.00769291,-0.000374016 -0.0169764,-0.000547244 -0.0267953,-0.000728346l-0.000925197 -0.0121654 0.00092126 0.0121732c-0.000307087,-7.87402e-006 -0.000606299,-2.3622e-005 -0.000905512,-5.11811e-005 -0.0381575,-0.000716535 -0.0839606,-0.00167717 -0.108276,-0.0163386 -0.0200276,-0.0120748 -0.0270748,-0.0301378 -0.0102677,-0.0577323 0.0063189,-0.010374 0.0142323,-0.019937 0.0235866,-0.0287047 -0.0330394,0.00455118 -0.0692835,0.00649606 -0.109051,0.00470472 -0.205165,-0.00921654 -0.310429,-0.0889291 -0.421051,-0.172705 -0.0127598,-0.00966142 -0.0255945,-0.019378 -0.0386654,-0.0290472 0.0086811,-0.00244882 0.0173346,-0.00490157 0.0259567,-0.00737008 0.00867323,0.0065 0.0172638,0.0130039 0.0258228,0.0194843 0.107646,0.0815197 0.210091,0.159098 0.408209,0.168 0.0583189,0.00262205 0.108827,-0.00311811 0.152496,-0.013437 0.0257559,-0.0134606 0.056437,-0.0237598 0.0907283,-0.0309646 0.0434213,-0.0196772 0.0765787,-0.0420669 0.101551,-0.0589291 0.00289764,-0.00195669 0.00568898,-0.00384252 0.0083937,-0.00565354zm-0.891543 0.149417c0.00122441,-0.00175984 0.00251969,-0.00346457 0.00387795,-0.0051063 -0.0205512,-0.0115157 -0.0431063,-0.0237441 -0.066189,-0.0362126l-0.00324016 -0.00223228 0.0102008 -0.0189764c0.0239173,0.0165197 0.049437,0.0335984 0.0772717,0.0510472l0.000322835 0.000181102 -1.1811e-005 1.9685e-005 0.000338583 0.000212598 0.00335827 0.00190157c0.0929488,0.0525197 0.18715,0.0895906 0.278185,0.11263l-0.00798819 0.0200984c-0.092,-0.0235945 -0.187031,-0.0611654 -0.28074,-0.11411l-0.00370472 -0.00210236 -1.9685e-005 3.54331e-005c-0.000413386,-0.00023622 -0.000807087,-0.000496063 -0.0011811,-0.000767717 -0.0035315,-0.00221654 -0.00702362,-0.00441732 -0.0104803,-0.00661811zm-0.0554252 -0.0625787l-0.0102323 0.0189528c-0.00600787,-0.0041378 -0.0119055,-0.00824409 -0.0177126,-0.012311 -0.0116417,-0.0114173 -0.0192008,-0.0261063 -0.0219724,-0.041752 0.0159724,0.0113622 0.0325197,0.0230827 0.0499173,0.0351102zm0.427799 0.180835c-0.00854724,0.00750394 -0.0186299,0.0130157 -0.0294567,0.0161772 -0.0154567,-0.0032126 -0.0310315,-0.00682677 -0.0466811,-0.0108425l0.00795276 -0.0201063c0.0229567,0.00580315 0.0457047,0.0107244 0.068185,0.0147717zm0.564114 -0.191228c-0.0121339,-0.000271654 -0.0241024,-0.000271654 -0.0358661,-1.5748e-005 -0.0456181,0.001 -0.0880276,0.00592126 -0.125075,0.0148543 -0.018878,0.00782283 -0.0394882,0.0150551 -0.0619646,0.0211496 -0.030311,0.0142598 -0.0536063,0.0327835 -0.0675591,0.055689 -0.00784252,0.012878 -0.00643701,0.0201693 4.33071e-005,0.0240748 0.0177323,0.010689 0.0594094,0.0115591 0.0942087,0.0122126 0.000295276,-1.1811e-005 0.000598425,-1.9685e-005 0.000897638,-1.1811e-005l3.93701e-006 3.93701e-006c0.00978346,0.000185039 0.0190394,0.000358268 0.0275945,0.000767717 0.0189646,0.000905512 0.0371299,0.00217717 0.0546063,0.00378346 0.0432874,-0.0271693 0.0777087,-0.0614488 0.100835,-0.102094l1.1811e-005 -1.9685e-005c0.000125984,-0.000271654 0.000251969,-0.00053937 0.000405512,-0.000807087l3.93701e-005 2.3622e-005 1.1811e-005 -2.3622e-005c0.0016378,-0.00290157 0.00668504,-0.014563 0.0118071,-0.0295866z"/>
  <path class="fil6" d="M3.43337 4.48657l0.0147953 -0.00394488c0.0135394,0.00891339 0.0270984,0.0186457 0.0415236,0.0290039 0.0203386,0.0146024 0.0424213,0.0304606 0.0685787,0.0469134l0.000161417 9.44882e-005 -7.87402e-006 1.1811e-005 0.000177165 0.000110236 0.00170079 0.000956693c0.0966102,0.0545433 0.196555,0.0750157 0.280098,0.0681654 0.0827165,-0.00678346 0.149118,-0.0403386 0.179693,-0.0940394l1.1811e-005 -1.5748e-005c5.90551e-005,-0.000141732 0.000129921,-0.000279528 0.000208661,-0.000425197l1.9685e-005 1.1811e-005 7.87402e-006 -7.87402e-006c0.00142126,-0.00252362 0.00778346,-0.0175039 0.0112835,-0.0322717 0.00151575,-0.00641732 0.00245276,-0.0126496 0.00208661,-0.0174488 -0.000244094,-0.00324409 -0.00101969,-0.00557087 -0.00257874,-0.00614173 -0.000385827,-0.000141732 -0.00084252,-0.000228346 -0.00137008,-0.000255906l-0.000377953 1.1811e-005 -2.75591e-005 -0.00566142 2.75591e-005 0.00566142c-0.00386614,2.3622e-005 -0.0117008,0.00549606 -0.022878,0.013311 -0.0318504,0.0222756 -0.0885315,0.0619016 -0.184134,0.0592677 -0.104862,-0.00288976 -0.157953,-0.0435394 -0.213752,-0.0862598 -0.00812992,-0.00622047 -0.016315,-0.0124882 -0.0247323,-0.018685l0.0136378 -0.00394094c0.00606299,0.00454724 0.0120276,0.00911417 0.0179646,0.0136575 0.0542953,0.0415748 0.105969,0.0811339 0.20722,0.0839213 0.0918819,0.00253543 0.146587,-0.0357165 0.177327,-0.0572087 0.0129094,-0.00903543 0.0219528,-0.0153504 0.0292874,-0.0153898l0 0c0.000192913,-3.93701e-006 0.000393701,3.93701e-006 0.000582677,2.3622e-005 0.00190157,4.72441e-005 0.00361417,0.000370079 0.00514961,0.000929134 0.00646063,0.00237402 0.00935039,0.00824409 0.00992913,0.0159094 0.000468504,0.0061063 -0.000594488,0.0135079 -0.00235433,0.0209213 -0.00373228,0.0157598 -0.0108386,0.032315 -0.0124685,0.0352047l1.9685e-005 1.1811e-005c-8.26772e-005,0.000149606 -0.000169291,0.000287402 -0.000267717,0.000425197l-2.75591e-005 4.72441e-005c-0.0324685,0.0570433 -0.10215,0.0926102 -0.188575,0.0996969 -0.0856024,0.00702362 -0.187878,-0.0138819 -0.286579,-0.0696024l-0.00187795 -0.00106299 -7.87402e-006 1.9685e-005c-0.000212598,-0.00011811 -0.000409449,-0.000248031 -0.000602362,-0.000389764 -0.0264843,-0.0166575 -0.048685,-0.0326102 -0.0691339,-0.0472913 -0.0173504,-0.0124606 -0.0334173,-0.0240039 -0.0497402,-0.0342441z"/>
  <path class="fil7" d="M2.75467 4.31011c0.117382,-0.0265787 1.02887,-0.232965 1.04095,-0.23711 0.00627165,-0.0310315 0.0313504,-0.0562638 0.0644764,-0.0611654l0.011315 0.0764724 -0.0111732 -0.0763976 1.24424 -0.184122c0.0346535,-0.0070315 0.0707795,0.0105472 0.0858504,0.0441654 0.0174606,0.0389567 3.93701e-005,0.0847008 -0.0389173,0.102161l-0.031622 -0.0705394 0.0314016 0.0703583c-0.125402,0.0562165 -0.248685,0.11311 -0.363094,0.165906 -0.442736,0.204319 -0.749232,0.345764 -1.31936,0.496949 -0.11,0.0291654 -0.183362,0.0874606 -0.212441,0.110567 -0.0148189,0.0117717 -0.0241457,0.019185 -0.0405906,0.0241772 -0.198827,0.0605039 -0.432953,0.12113 -0.652079,0.1735 -0.308768,0.0737874 -0.588059,0.131244 -0.697181,0.148906 -0.130528,0.021126 -0.305327,-0.549323 -0.315909,-0.584268 -0.000484252,-0.00148425 -0.000937008,-0.00299606 -0.00133465,-0.00452756 -0.0107874,-0.041311 0.0139567,-0.0835433 0.0552638,-0.0943307l0.0195315 0.0747992 -0.0193228 -0.0745866 0.557098 -0.145472c0.0100787,-0.00356299 0.0210591,-0.00508268 0.0324055,-0.00409843l0 1.5748e-005 0.5605 0.0486417z"/>
  <path class="fil8" d="M3.65219 4.10627c0.0360394,-0.00824409 0.0668898,-0.0153268 0.0906378,-0.020811 -0.0464961,0.0201457 -0.0892283,0.0432835 -0.127594,0.0687441 -0.0657638,0.0436496 -0.118591,0.0940827 -0.155374,0.147874 0.00437402,-0.00219291 0.00876772,-0.00441339 0.0132126,-0.00670079 0.00684646,-0.00352362 0.0149685,-0.00801575 0.0235669,-0.0127717l0.00688189 0.0100748 -0.00688189 -0.0100827c0.000267717,-0.000145669 0.000535433,-0.000279528 0.000811024,-0.000405512 0.0334016,-0.0184606 0.0735472,-0.0405276 0.101937,-0.0399882 0.0233819,0.000440945 0.0385157,0.0125591 0.0377559,0.0448622 -0.000287402,0.0121417 -0.00235827,0.0243819 -0.00607087,0.0366535 0.0263346,-0.0204606 0.056752,-0.0402677 0.0920866,-0.0586024 0.182287,-0.0946024 0.313303,-0.0781969 0.450996,-0.0609606 0.0798386,0.00999606 0.161984,0.0202795 0.257484,0.00853937 0.119449,-0.0146811 0.242193,-0.0611575 0.334445,-0.120819 0.0877244,-0.0567402 0.147331,-0.124815 0.148717,-0.187575 0.00030315,-0.0136732 -0.00383465,-0.0187677 -0.0102835,-0.0188976 -0.017622,-0.000354331 -0.0487323,0.0178701 -0.0746772,0.0331457 -0.000208661,0.000145669 -0.000429134,0.000287402 -0.000653543,0.000417323l-3.93701e-006 -3.93701e-006c-0.00729134,0.00429528 -0.014189,0.00835827 -0.0206772,0.0119213 -0.19778,0.108594 -0.315276,0.0973819 -0.478272,0.0818228 -0.0492283,-0.00469685 -0.102685,-0.00979528 -0.163705,-0.0120157l-0.000370079 3.93701e-006 0 -2.3622e-005 -0.000401575 -1.5748e-005 -0.00385827 3.54331e-005c-0.106756,0.000992126 -0.20687,0.0159882 -0.297228,0.0415512l-0.00312992 -0.0214016c0.0914685,-0.0255669 0.192555,-0.0405433 0.300181,-0.0415433l0.00425984 -3.14961e-005 0 -4.33071e-005c0.000472441,-3.93701e-006 0.000944882,2.75591e-005 0.00140551,7.48031e-005 0.0617756,0.00225197 0.115528,0.00738189 0.165031,0.0121102 0.158827,0.0151575 0.273331,0.0260866 0.464976,-0.0791417 0.00583071,-0.00320079 0.012748,-0.00727559 0.0200709,-0.0115866l0.0058622 0.00914173 -0.0058622 -0.00914961c0.000228346,-0.000133858 0.000452756,-0.000255906 0.000685039,-0.000374016 0.0284449,-0.016748 0.0626299,-0.0367717 0.0868071,-0.0362795 0.0199134,0.000401575 0.0327992,0.0113937 0.0321535,0.0407087 -0.00155512,0.0703268 -0.0650787,0.1445 -0.158512,0.204929 -0.0948543,0.0613465 -0.221157,0.109142 -0.344161,0.12426 -0.0983701,0.0120984 -0.181941,0.00163386 -0.263173,-0.00853543 -0.133988,-0.0167756 -0.261496,-0.0327402 -0.43752,0.0586102 -0.0518189,0.0268898 -0.092689,0.0571181 -0.12535,0.0878858 -0.0155709,0.0245354 -0.0369921,0.0487953 -0.0630866,0.0721811 -0.0277677,0.038752 -0.0452913,0.0747205 -0.0584882,0.101811 -0.0131693,0.0270433 -0.0223976,0.0459843 -0.0349094,0.0529961l0 0c-0.000330709,0.000188976 -0.000677165,0.000358268 -0.00102362,0.000511811 -0.00329921,0.00172441 -0.00654724,0.00282283 -0.00972835,0.00334646 -0.0133976,0.00222441 -0.0241417,-0.00466929 -0.0327087,-0.0166929 -0.00682677,-0.00957874 -0.0123228,-0.0227362 -0.0166378,-0.0365591 -0.00034252,-0.00109449 -0.000677165,-0.00218898 -0.00100394,-0.00329528 -0.101815,0.0512992 -0.22422,0.0898583 -0.343961,0.103673 -0.11552,0.0133268 -0.213657,0.00179528 -0.309055,-0.00940945 -0.157343,-0.0184882 -0.307075,-0.0360787 -0.51378,0.0645866 -0.187567,0.0913465 -0.253126,0.21763 -0.289969,0.288602 -0.0154685,0.0298031 -0.0263071,0.0506732 -0.0409961,0.0584016l3.93701e-006 3.93701e-006c-0.000393701,0.000204724 -0.000799213,0.000389764 -0.00120079,0.000555118 -0.00387795,0.00190551 -0.00769291,0.00311811 -0.0114331,0.00369685 -0.0157362,0.00245276 -0.0283465,-0.00514961 -0.0384055,-0.0183976 -0.00801969,-0.0105591 -0.0144724,-0.0250591 -0.0195433,-0.0402953 -0.0107835,-0.0323976 -0.0157047,-0.069748 -0.0157913,-0.0766772l-5.11811e-005 0c-3.93701e-006,-0.000354331 7.87402e-006,-0.000704724 3.93701e-005,-0.00105118l0 -0.000106299c-0.000917323,-0.137051 0.0978268,-0.274118 0.26328,-0.377173 0.163874,-0.102063 0.393646,-0.171047 0.656646,-0.173339l0.005 -3.54331e-005 0 -4.33071e-005c0.000559055,-3.93701e-006 0.00111024,2.3622e-005 0.00165354,7.87402e-005 0.0725472,0.00248031 0.135669,0.00813386 0.193795,0.0133425 0.172197,0.0154252 0.300028,0.0268622 0.495724,-0.0627165 0.0382441,-0.0672638 0.099874,-0.13024 0.179787,-0.183283 0.0158346,-0.0105079 0.0324016,-0.0206299 0.0496378,-0.0303189zm0.145969 -0.0427087c0.00364961,-0.0107717 0.00962598,-0.0205827 0.0174252,-0.0287362 0.0149882,-0.00494488 0.0302835,-0.00960236 0.0458465,-0.0139528l0.00316535 0.0213937c-0.0227835,0.00644882 -0.0449449,0.013563 -0.066437,0.0212953zm-0.413406 0.458547c-0.00430315,-0.0202087 -0.00633858,-0.0378583 -0.00638976,-0.0422205l-4.33071e-005 0c-3.93701e-006,-0.000318898 7.87402e-006,-0.000637795 3.54331e-005,-0.000956693l0 -9.44882e-005c-0.00026378,-0.0420866 0.00920472,-0.0841772 0.0272953,-0.125071 -0.185969,0.0787205 -0.312945,0.0673701 -0.481173,0.0522992 -0.057811,-0.00517717 -0.120587,-0.0107953 -0.19224,-0.0132441l-0.000437008 7.87402e-006 0 -2.75591e-005 -0.000472441 -1.5748e-005 -0.00452756 3.54331e-005c-0.257437,0.00224016 -0.482028,0.0695669 -0.641957,0.169177 -0.158343,0.098626 -0.252846,0.228634 -0.25198,0.357661l0 2.75591e-005c3.14961e-005,0.000326772 5.51181e-005,0.00065748 5.90551e-005,0.000996063l-5.11811e-005 0 0 2.3622e-005c6.69291e-005,0.00604724 0.00466142,0.0397756 0.0147677,0.0701417 0.00438976,0.013189 0.00974409,0.0254331 0.0160433,0.0337323 0.00425984,0.00561024 0.00850787,0.00900787 0.0123189,0.00841339 0.000933071,-0.000141732 0.00195669,-0.000464567 0.00304724,-0.000972441l0.000740157 -0.000417323 0.00662992 0.0102126 -0.00662598 -0.0102126c0.00774016,-0.00407087 0.017126,-0.0221496 0.0305236,-0.0479606 0.0381693,-0.0735276 0.106091,-0.204362 0.301268,-0.299417 0.214055,-0.104252 0.367913,-0.0861732 0.529602,-0.0671772 0.0937598,0.0110157 0.190224,0.0223504 0.302374,0.00940945 0.119028,-0.0137283 0.240835,-0.052689 0.341193,-0.10435zm0.108268 -0.0366772c-0.0133228,0.00939764 -0.0273583,0.0185709 -0.0420236,0.0274764 -0.0128622,0.00780709 -0.0262205,0.0154094 -0.0400039,0.0227874 0.000712598,0.00255906 0.00146063,0.00511811 0.00225197,0.00764961 0.00373622,0.0119685 0.00829528,0.0230827 0.0136575,0.0306063 0.00363386,0.00509449 0.00724803,0.00817717 0.0104961,0.0076378 0.000791339,-0.000125984 0.00166142,-0.00042126 0.00259055,-0.000877953l0.000629921 -0.00038189 0.00564567 0.00926772 -0.00564173 -0.00926772c0.00659055,-0.00369685 0.0145866,-0.0200984 0.0259921,-0.0435197 0.00723622,-0.0148583 0.0157362,-0.0322953 0.0264055,-0.051378zm-0.0877835 0.0257992c0.0106417,-0.00583465 0.0210079,-0.011815 0.0310669,-0.0179213 0.0390039,-0.0236732 0.0732717,-0.0491417 0.100894,-0.0754016 0.0124331,-0.0162126 0.0266693,-0.0327795 0.0430827,-0.0492992 0.019122,-0.0275039 0.0300354,-0.0551969 0.0306654,-0.0820079 0.000354331,-0.0150709 -0.00450787,-0.020685 -0.0120748,-0.0208268 -0.0206969,-0.000389764 -0.0572323,0.0196929 -0.0876969,0.0365276 -0.000248031,0.00015748 -0.000503937,0.000314961 -0.000767717,0.00046063l-3.93701e-006 -3.93701e-006c-0.00856693,0.00473228 -0.0166654,0.00920866 -0.0242835,0.0131378 -0.016878,0.00869291 -0.0332441,0.0166772 -0.0491811,0.0240236 -0.0239016,0.0451732 -0.0365748,0.0920709 -0.0362756,0.138831l0 2.75591e-005c2.3622e-005,0.000295276 4.72441e-005,0.000590551 4.72441e-005,0.000897638l-4.33071e-005 0 0 2.3622e-005c3.14961e-005,0.00333858 0.00149606,0.0159567 0.00457087,0.0315315z"/>
  <path class="fil8" d="M4.15973 4.11664c0.0312638,0.00118504 0.0584685,0.00389764 0.0835197,0.00638976 0.0803819,0.008 0.138331,0.0137677 0.235319,-0.0417677 0.00295276,-0.00168504 0.00645276,-0.00383858 0.0101575,-0.00611417l0.00296457 0.00482677 -0.00296457 -0.00483071c0.000114173,-7.48031e-005 0.000228346,-0.000137795 0.000346457,-0.000200787 0.0143937,-0.00883465 0.0316969,-0.0194055 0.0439331,-0.0191457 0.0100748,0.000208661 0.0165945,0.00601575 0.0162717,0.0214882 -0.000787402,0.0371142 -0.032937,0.0762598 -0.0802205,0.108154 -0.0480079,0.032378 -0.111925,0.0576024 -0.174177,0.0655866 -0.0497835,0.00637795 -0.0920787,0.000854331 -0.133189,-0.00450787 -0.0678071,-0.00885827 -0.132339,-0.0172795 -0.221421,0.0309331 -0.0808386,0.0437441 -0.109091,0.10422 -0.124965,0.138209 -0.00666535,0.0142756 -0.0113386,0.0242717 -0.0176693,0.0279724l0 0c-0.000165354,9.84252e-005 -0.00034252,0.000192913 -0.000515748,0.000267717 -0.00167323,0.000913386 -0.00331496,0.00148819 -0.0049252,0.00176772 -0.00677953,0.00117717 -0.0122165,-0.00246457 -0.0165512,-0.00881102 -0.00346063,-0.00505512 -0.00624016,-0.0119961 -0.00842126,-0.0192953 -0.00465354,-0.0155157 -0.00677165,-0.0334055 -0.00680709,-0.0367244l-2.3622e-005 0c0,-0.000169291 3.93701e-006,-0.000334646 1.9685e-005,-0.000503937l0 -4.72441e-005c-0.000401575,-0.0656378 0.0421575,-0.13128 0.113461,-0.18063 0.070626,-0.0488819 0.169646,-0.0819173 0.282988,-0.0830157l0.00215748 -1.5748e-005 0 -1.9685e-005c0.000240157,-3.93701e-006 0.000476378,1.1811e-005 0.000712598,3.54331e-005zm0.0824173 0.0176339c-0.0249173,-0.00248031 -0.0519724,-0.00516929 -0.0828504,-0.00634252l-0.000188976 3.93701e-006 0 -1.5748e-005 -0.000204724 -7.87402e-006 -0.00195276 1.9685e-005c-0.110941,0.00106693 -0.207732,0.033315 -0.276657,0.0810157 -0.0682402,0.0472362 -0.108969,0.109496 -0.108598,0.171291l0 1.5748e-005c1.9685e-005,0.000153543 2.75591e-005,0.000311024 3.14961e-005,0.000472441l-2.3622e-005 0 0 1.1811e-005c2.75591e-005,0.00289764 0.00200787,0.0190512 0.0063622,0.0335906 0.0018937,0.00631496 0.00420079,0.0121811 0.00691732,0.0161535 0.00183465,0.00268898 0.00366535,0.00431496 0.00530315,0.0040315 0.000405512,-7.08661e-005 0.000846457,-0.000224409 0.00131496,-0.000464567l0.000322835 -0.000200787 0.00285433 0.00488976 -0.00285433 -0.00488976c0.00333465,-0.00195276 0.00738189,-0.0106063 0.0131535,-0.0229646 0.0164488,-0.0352165 0.0457205,-0.097874 0.129835,-0.143398 0.0922559,-0.0499252 0.158555,-0.0412677 0.228244,-0.0321693 0.0404055,0.00527165 0.0819764,0.0107008 0.130311,0.00450394 0.0604488,-0.00774803 0.122571,-0.0322795 0.16926,-0.0637677 0.0443937,-0.0299449 0.074563,-0.0658701 0.0752638,-0.0989961 0.000149606,-0.00721654 -0.00194488,-0.00990157 -0.00520472,-0.00997244 -0.00892126,-0.000188976 -0.0246693,0.00943307 -0.0377953,0.0174961 -0.000110236,7.48031e-005 -0.000220472,0.000145669 -0.000334646,0.000216535l0 0c-0.00368898,0.00226772 -0.0071811,0.00440945 -0.0104646,0.00629134 -0.100091,0.0573071 -0.159559,0.0513937 -0.242043,0.043185z"/>
  <path class="fil9" d="M3.88062 2.68851c0.111575,0.133209 0.214374,0.255941 0.274169,0.443118 0.122583,0.383697 0.0124488,0.675504 -0.182843,0.849535 -0.129472,0.115378 -0.297094,0.177894 -0.459724,0.180457 -0.166331,0.00261417 -0.327941,-0.0570591 -0.440728,-0.186374 -0.154091,-0.176685 -0.213736,-0.480795 -0.0580039,-0.927587 0.00273228,-0.0105866 0.00775984,-0.0207638 0.0151693,-0.0297638 0.0271339,-0.0329567 0.0758583,-0.0376732 0.108815,-0.0105394l-0.000181102 0.000216535c0.0727205,0.0598898 0.138697,0.160622 0.179634,0.275854 0.0156969,0.044185 0.0278937,0.090878 0.0355591,0.138598 0.0924764,-0.161402 0.0290394,-0.373055 -0.026311,-0.557669 -0.0295315,-0.0985 -0.0570709,-0.190339 -0.063189,-0.272453 -0.00794094,-0.106472 -0.00848425,-0.210575 0.00674016,-0.308579 0.0156102,-0.100476 0.0477362,-0.193063 0.104969,-0.273161 0.0100236,-0.0160591 0.025937,-0.0285 0.0456772,-0.0337559 0.041252,-0.0109803 0.0836063,0.013563 0.0945866,0.0548189l-0.0747008 0.0198858 0.0745866 -0.0196299c0.0859843,0.322984 0.232677,0.498118 0.365776,0.657028z"/>
  <path class="fil10" d="M3.77163 3.10828c0.0797835,0.095252 0.153291,0.183016 0.196051,0.316858 0.0876535,0.27437 0.00889764,0.483031 -0.130748,0.607476 -0.0925787,0.0825 -0.212441,0.127205 -0.328732,0.129035 -0.118937,0.00187008 -0.234496,-0.0407992 -0.315146,-0.133272 -0.110185,-0.126339 -0.152835,-0.343799 -0.0414764,-0.663283 0.00195276,-0.00757087 0.00554724,-0.0148465 0.0108465,-0.0212795 0.0194016,-0.0235669 0.0542402,-0.0269409 0.0778071,-0.00753937l-0.000129921 0.00015748c0.0520039,0.0428228 0.0991772,0.11485 0.128453,0.197252 0.0112244,0.0315945 0.0199449,0.0649803 0.0254252,0.0991063 0.066126,-0.115409 0.0207677,-0.26676 -0.018815,-0.398772 -0.0211142,-0.0704331 -0.0408071,-0.136102 -0.045185,-0.194819 -0.00567323,-0.0761339 -0.00606299,-0.150575 0.00482283,-0.220654 0.0111614,-0.0718465 0.0341339,-0.138051 0.0750591,-0.195327 0.00716929,-0.0114843 0.0185472,-0.0203819 0.0326614,-0.0241378 0.0295,-0.00785433 0.0597835,0.00969685 0.0676378,0.0391969l-0.0534173 0.0142205 0.0533346 -0.0140354c0.0614843,0.230953 0.166378,0.356185 0.261551,0.469815z"/>
  <path class="fil11" d="M3.77163 3.10828c0.0797835,0.095252 0.153291,0.183008 0.196051,0.316858 0.0876535,0.274366 0.00889764,0.483028 -0.130744,0.607469 -0.022874,0.0203819 -0.0474055,0.0384488 -0.0731417,0.0541378 -0.0157756,0.00180315 -0.0315669,0.00284252 -0.0472874,0.00309055 -0.118937,0.00187008 -0.2345,-0.0407992 -0.31515,-0.133272 -0.0935472,-0.107264 -0.13839,-0.280228 -0.0816575,-0.525528 0.0190827,0.0310157 0.0357598,0.0657953 0.0488543,0.102646 0.0112244,0.0315945 0.0199449,0.0649803 0.0254291,0.0991102 0.061689,-0.107673 0.0263465,-0.24661 -0.0108071,-0.371957 0.0196929,-0.0128661 0.0462402,-0.0121181 0.0653622,0.00362598l-0.000129921 0.00015748c0.052,0.0428228 0.0991772,0.11485 0.128449,0.197252 0.0112283,0.0315945 0.0199449,0.0649803 0.0254291,0.0991102 0.0661299,-0.115417 0.0207677,-0.266764 -0.018815,-0.398776 -0.0211142,-0.0704331 -0.0408071,-0.136102 -0.045185,-0.194819 -0.00567717,-0.0761339 -0.00606693,-0.150579 0.0048189,-0.220657l0.000456693 -0.00287402c0.0621142,0.166264 0.148484,0.269409 0.228067,0.364425z"/>
  <path class="fil10" d="M3.15948 1.71246c0.143941,0.252854 0.111945,0.339386 -0.067752,0.824815l-0.0154252 0.041685c-0.042815,0.115772 0.00951575,0.224571 0.0109213,0.227461l0.000145669 -7.08661e-005c0.0163543,0.0337874 0.00222441,0.074437 -0.031563,0.0907913 -0.0258976,0.0125354 -0.0558228,0.00716535 -0.0757559,-0.0112441 -0.333307,-0.254059 -0.214063,-0.498181 -0.0824134,-0.767528 0.0596496,-0.122031 0.122228,-0.250067 0.133839,-0.380894l0.0674409 0.00584252 -0.0677047 -0.00600787c0.0033189,-0.0373898 0.0363228,-0.0650118 0.0737126,-0.0616969 0.0241772,0.00214567 0.0442677,0.0167087 0.0545551,0.0368465z"/>
  <g id="_615690296">
   <path id="_354900728" class="fil2 str0" d="M7.25323 8.46217l0 0zm-3.78627 -3.78627l0 0z"/>
   <path id="_354900272" class="fil2 str0" d="M7.25632 8.45813l0 0zm-3.78627 -3.78627l0 0z"/>
   <path id="_354900992" class="fil2 str0" d="M7.25604 8.45847l0 0zm-3.78627 -3.78627l0 0z"/>
   <path id="_354901208" class="fil2 str0" d="M7.25574 8.45885l0 0zm-3.78627 -3.78627l0 0z"/>
   <path id="_354901592" class="fil2 str0" d="M7.25548 8.45917l0 0zm-3.78627 -3.78627l0 0z"/>
   <path id="_354901184" class="fil2 str0" d="M7.25489 8.45994l0 0zm-3.78627 -3.78627l0 0z"/>
   <path id="_354901496" class="fil2 str0" d="M7.25463 8.46028l0 0zm-3.78627 -3.78627l0 0z"/>
   <path id="_354901328" class="fil2 str0" d="M7.25405 8.46105l0 0zm-3.78627 -3.78627l0 0z"/>
   <path id="_354901616" class="fil2 str0" d="M7.2535 8.4618l0 0zm-3.78627 -3.78627l0 0z"/>
   <path id="_354900872" class="fil2 str0" d="M7.25379 8.46141l0 0zm-3.78627 -3.78627l0 0z"/>
   <path id="_354901664" class="fil2 str0" d="M7.2358 8.44623l0 0zm-3.78627 -3.78627l0 0z"/>
   <path id="_354901856" class="fil2 str0" d="M7.18052 7.08535l0 0zm-3.78627 -3.78627l0 0z"/>
   <path id="_354902192" class="fil2 str0" d="M5.98044 8.04772l0 0zm-3.78627 -3.78627l0 0z"/>
  </g>
  <path class="fil2 str0" d="M3.46696 4.6759l0 0zm0.00309055 -0.00404724l0 0zm-0.000279528 0.00034252l0 0zm-0.00030315 0.000377953l0 0zm-0.000255906 0.000326772l0 0zm-0.000598425 0.00076378l0 0zm-0.000259843 0.00034252l0 0zm-0.000574803 0.000767717l0 0zm-0.000547244 0.000748031l0 0zm0.000283465 -0.000389764l0 0zm-0.0179921 -0.0151772l0 0zm-0.0552717 -1.36088l0 0zm-1.20008 0.962374l0 0z"/>
 </g>
</svg>
